<svg width="20" height="16" viewBox="0 0 20 16" fill="none" xmlns="http://www.w3.org/2000/svg">
<path d="M17.4987 13.9167H2.4987V2.16667H17.4987V13.9167ZM17.4987 0.5H2.4987C1.58203 0.5 0.832031 1.25 0.832031 2.16667V13.8333C0.832031 14.75 1.58203 15.5 2.4987 15.5H17.4987C18.4154 15.5 19.1654 14.75 19.1654 13.8333V2.16667C19.1654 1.25 18.4154 0.5 17.4987 0.5Z" fill="#2176E3"/>
<path d="M12.157 4.66667L9.9987 6.825L7.84036 4.66667L6.66536 5.84167L8.8237 8L6.66536 10.1583L7.84036 11.3333L9.9987 9.175L12.157 11.3333L13.332 10.1583L11.1737 8L13.332 5.84167L12.157 4.66667Z" fill="#2176E3"/>
</svg>
