<svg width="64" height="62" viewBox="0 0 64 62" fill="none" xmlns="http://www.w3.org/2000/svg">
<rect x="0.5" width="63.5" height="61.3833" rx="30.6917" fill="#FFC10E" fill-opacity="0.4"/>
<path d="M46.5 28.4141V23.1641C46.5 20.1891 44.225 17.9141 41.25 17.9141H23.75C20.775 17.9141 18.5 20.1891 18.5 23.1641V28.4141H46.5Z" fill="black"/>
<path d="M18.5 31.9141V45.9141C18.5 48.8891 20.775 51.1641 23.75 51.1641H41.25C44.225 51.1641 46.5 48.8891 46.5 45.9141V31.9141H18.5Z" fill="black"/>
<path d="M23.75 54.6641C22.7 54.6641 22 53.9641 22 52.9141V49.4141C22 48.3641 22.7 47.6641 23.75 47.6641C24.8 47.6641 25.5 48.3641 25.5 49.4141V52.9141C25.5 53.9641 24.8 54.6641 23.75 54.6641Z" fill="black"/>
<path d="M41.25 54.6641C40.2 54.6641 39.5 53.9641 39.5 52.9141V49.4141C39.5 48.3641 40.2 47.6641 41.25 47.6641C42.3 47.6641 43 48.3641 43 49.4141V52.9141C43 53.9641 42.3 54.6641 41.25 54.6641Z" fill="black"/>
<path d="M37.5026 21.332H27.5026C26.5026 21.332 25.8359 20.9628 25.8359 20.409V10.2551C25.8359 9.70126 26.5026 9.33203 27.5026 9.33203H37.5026C38.5026 9.33203 39.1693 9.70126 39.1693 10.2551V20.409C39.1693 20.9628 38.5026 21.332 37.5026 21.332ZM29.1693 19.4859H35.8359V11.1782H29.1693V19.4859Z" fill="black"/>
<path d="M39.5 11.5H25.5C24.45 11.5 23.75 10.8 23.75 9.75C23.75 8.7 24.45 8 25.5 8H39.5C40.55 8 41.25 8.7 41.25 9.75C41.25 10.8 40.55 11.5 39.5 11.5Z" fill="black"/>
</svg>
