<svg width="64" height="62" viewBox="0 0 64 62" fill="none" xmlns="http://www.w3.org/2000/svg">
<rect width="63.5" height="61.3833" rx="30.6917" fill="#FFC10E" fill-opacity="0.4"/>
<path d="M50.7992 30.6901C50.7992 24.41 46.2124 19.1924 40.2159 18.1806V15.8734C40.2159 12.3725 37.3669 9.52344 33.8659 9.52344H29.6326C26.1316 9.52344 23.2826 12.3725 23.2826 15.8734V18.1806C17.286 19.1924 12.6992 24.41 12.6992 30.6901V47.6234C12.6992 49.9581 14.5979 51.8568 16.9326 51.8568H19.0492V37.0401C19.0492 33.5391 21.8983 30.6901 25.3992 30.6901H38.0992C41.6002 30.6901 44.4492 33.5391 44.4492 37.0401V51.8568H46.5659C48.9006 51.8568 50.7992 49.9581 50.7992 47.6234V30.6901ZM27.5159 15.8734C27.5159 14.705 28.4663 13.7568 29.6326 13.7568H33.8659C34.4273 13.7568 34.9656 13.9798 35.3626 14.3767C35.7595 14.7737 35.9826 15.3121 35.9826 15.8734V17.9901H27.5159V15.8734Z" fill="black"/>
<path d="M42.3425 36.7725C42.3425 36.0942 42.0637 35.4436 41.5675 34.964C41.0713 34.4843 40.3983 34.2148 39.6966 34.2148H23.8216C22.3638 34.2148 21.1758 35.3607 21.1758 36.7725V41.8878H42.3425V36.7725ZM21.1758 47.003H42.3425V54.676H21.1758V47.003Z" fill="black"/>
</svg>
