<svg width="21" height="20" viewBox="0 0 21 20" fill="none" xmlns="http://www.w3.org/2000/svg">
<path d="M7.78906 10.625C8.13424 10.625 8.41406 10.3452 8.41406 10C8.41406 9.65482 8.13424 9.375 7.78906 9.375C7.44388 9.375 7.16406 9.65482 7.16406 10C7.16406 10.3452 7.44388 10.625 7.78906 10.625Z" fill="#4F4A3D"/>
<path d="M13.6758 10.625C14.021 10.625 14.3008 10.3452 14.3008 10C14.3008 9.65482 14.021 9.375 13.6758 9.375C13.3306 9.375 13.0508 9.65482 13.0508 10C13.0508 10.3452 13.3306 10.625 13.6758 10.625Z" fill="#4F4A3D"/>
<path d="M3.35 16.8742H12.625C12.6537 16.8732 12.6815 16.8647 12.7058 16.8494C12.7301 16.8342 12.7499 16.8127 12.7633 16.7874C12.7766 16.762 12.783 16.7335 12.7817 16.7048C12.7805 16.6762 12.7717 16.6484 12.7563 16.6242L12.225 15.843C12.1792 15.7757 12.1177 15.7206 12.0459 15.6825C11.974 15.6444 11.8939 15.6244 11.8125 15.6242H3.35C3.09141 15.6242 2.84342 15.5215 2.66057 15.3386C2.47772 15.1558 2.375 14.9078 2.375 14.6492V11.9242C2.37636 11.9114 2.38206 11.8995 2.39116 11.8904C2.40026 11.8813 2.4122 11.8756 2.425 11.8742H3.625C3.89988 11.8781 4.17224 11.8214 4.42279 11.7083C4.67334 11.5952 4.89596 11.4284 5.07486 11.2196C5.25377 11.0109 5.38459 10.7654 5.45806 10.5005C5.53153 10.2356 5.54584 9.95778 5.5 9.68672C5.41297 9.23855 5.16998 8.8357 4.81415 8.54966C4.45831 8.26362 4.01265 8.11289 3.55625 8.12422H2.425C2.4122 8.12286 2.40026 8.11716 2.39116 8.10806C2.38206 8.09896 2.37636 8.08702 2.375 8.07422V5.34922C2.375 5.09063 2.47772 4.84264 2.66057 4.65979C2.84342 4.47694 3.09141 4.37422 3.35 4.37422H4.25C4.27219 4.37345 4.29378 4.36678 4.31253 4.3549C4.33129 4.34302 4.34655 4.32636 4.35673 4.30663C4.36692 4.2869 4.37166 4.26481 4.37048 4.24264C4.36929 4.22046 4.36223 4.19901 4.35 4.18047L3.675 3.20547C3.65901 3.18026 3.63683 3.15955 3.61057 3.14533C3.58432 3.13111 3.55486 3.12384 3.525 3.12422H3.35C2.7604 3.12587 2.19542 3.36082 1.77851 3.77773C1.3616 4.19464 1.12665 4.75962 1.125 5.34922V8.07422C1.125 8.419 1.26196 8.74966 1.50576 8.99346C1.74956 9.23726 2.08022 9.37422 2.425 9.37422H3.55625C3.71222 9.36796 3.8656 9.41544 3.99075 9.50873C4.1159 9.60202 4.20521 9.73546 4.24375 9.88672C4.25995 9.97843 4.25546 10.0726 4.23059 10.1624C4.20571 10.2521 4.1611 10.3352 4.1 10.4055C4.04132 10.4741 3.96848 10.5292 3.88648 10.5669C3.80448 10.6047 3.71528 10.6242 3.625 10.6242H2.425C2.08022 10.6242 1.74956 10.7612 1.50576 11.005C1.26196 11.2488 1.125 11.5794 1.125 11.9242V14.6492C1.12665 15.2388 1.3616 15.8038 1.77851 16.2207C2.19542 16.6376 2.7604 16.8726 3.35 16.8742ZM17.65 3.12422H6.60625L5.8375 1.98672C5.74467 1.84914 5.601 1.75407 5.43807 1.72242C5.27515 1.69078 5.10633 1.72515 4.96875 1.81797C4.83117 1.9108 4.7361 2.05447 4.70445 2.2174C4.6728 2.38032 4.70717 2.54914 4.8 2.68672L15.1625 18.0117C15.2084 18.0799 15.2673 18.1384 15.3358 18.1838C15.4044 18.2292 15.4812 18.2607 15.5619 18.2763C15.6426 18.292 15.7256 18.2916 15.8061 18.2752C15.8867 18.2587 15.9632 18.2265 16.0312 18.1805C16.0995 18.1346 16.1579 18.0757 16.2033 18.0071C16.2488 17.9386 16.2802 17.8618 16.2959 17.7811C16.3115 17.7004 16.3111 17.6174 16.2947 17.5369C16.2782 17.4563 16.2461 17.3798 16.2 17.3117L15.9062 16.8742H17.65C18.2396 16.8726 18.8046 16.6376 19.2215 16.2207C19.6384 15.8038 19.8734 15.2388 19.875 14.6492V11.9242C19.875 11.5794 19.738 11.2488 19.4942 11.005C19.2504 10.7612 18.9198 10.6242 18.575 10.6242H17.375C17.2847 10.6242 17.1955 10.6047 17.1135 10.5669C17.0315 10.5292 16.9587 10.4741 16.9 10.4055C16.8389 10.3352 16.7943 10.2521 16.7694 10.1624C16.7445 10.0726 16.74 9.97843 16.7563 9.88672C16.7948 9.73546 16.8841 9.60202 17.0092 9.50873C17.1344 9.41544 17.2878 9.36796 17.4438 9.37422H18.575C18.7457 9.37422 18.9148 9.34059 19.0725 9.27526C19.2302 9.20993 19.3735 9.11418 19.4942 8.99346C19.615 8.87274 19.7107 8.72943 19.776 8.57171C19.8414 8.41399 19.875 8.24494 19.875 8.07422V5.34922C19.8734 4.75962 19.6384 4.19464 19.2215 3.77773C18.8046 3.36082 18.2396 3.12587 17.65 3.12422ZM18.625 8.07422C18.6236 8.08702 18.6179 8.09896 18.6088 8.10806C18.5997 8.11716 18.5878 8.12286 18.575 8.12422H17.4438C16.9873 8.11289 16.5417 8.26362 16.1859 8.54966C15.83 8.8357 15.587 9.23855 15.5 9.68672C15.4542 9.95778 15.4685 10.2356 15.5419 10.5005C15.6154 10.7654 15.7462 11.0109 15.9251 11.2196C16.104 11.4284 16.3267 11.5952 16.5772 11.7083C16.8278 11.8214 17.1001 11.8781 17.375 11.8742H18.575C18.5878 11.8756 18.5997 11.8813 18.6088 11.8904C18.6179 11.8995 18.6236 11.9114 18.625 11.9242V14.6492C18.625 14.7773 18.5998 14.904 18.5508 15.0223C18.5018 15.1406 18.43 15.2481 18.3394 15.3386C18.2489 15.4292 18.1414 15.501 18.0231 15.55C17.9048 15.599 17.778 15.6242 17.65 15.6242H15.0563L11.3375 10.1242C11.3404 10.0826 11.3404 10.0408 11.3375 9.99922C11.3397 9.85033 11.2886 9.70555 11.1935 9.59097C11.0984 9.47638 10.9655 9.39952 10.8188 9.37422L7.45 4.37422H17.65C17.9086 4.37422 18.1566 4.47694 18.3394 4.65979C18.5223 4.84264 18.625 5.09063 18.625 5.34922V8.07422Z" fill="#4F4A3D"/>
</svg>
