<svg width="20" height="20" viewBox="0 0 20 20" fill="none" xmlns="http://www.w3.org/2000/svg">
<g clip-path="url(#clip0_873_10334)">
<path fill-rule="evenodd" clip-rule="evenodd" d="M10 20C8.0222 20 6.0888 19.4135 4.4443 18.3147C2.79981 17.2159 1.5181 15.6541 0.76122 13.8268C0.00434319 11.9996 -0.193704 9.98891 0.192148 8.0491C0.578 6.10929 1.53042 4.32746 2.92894 2.92894C4.32747 1.53041 6.10929 0.578005 8.0491 0.192153C9.98891 -0.193699 11.9996 0.00432817 13.8269 0.761204C15.6541 1.51808 17.2159 2.79981 18.3147 4.4443C19.4135 6.08879 20 8.02219 20 10C20 12.6522 18.9464 15.1957 17.0711 17.0711C15.1957 18.9464 12.6522 20 10 20ZM4.338 12.255C4.12296 12.0376 4.00235 11.7441 4.00235 11.4383C4.00235 11.1325 4.12296 10.8391 4.338 10.6217L4.92669 10.0363C5.0268 9.93532 5.14617 9.85545 5.27774 9.80146C5.40931 9.74747 5.55041 9.72046 5.69262 9.72205C5.83483 9.72364 5.97526 9.75377 6.1056 9.81068C6.23594 9.86759 6.35351 9.95011 6.45134 10.0533L7.49134 11.1323C7.54093 11.1847 7.60066 11.2263 7.66688 11.2548C7.7331 11.2833 7.80443 11.298 7.87652 11.298C7.9486 11.298 8.01993 11.2833 8.08615 11.2548C8.15237 11.2263 8.21208 11.1847 8.26167 11.1323L13.5617 5.669C13.6602 5.56505 13.7788 5.4821 13.9102 5.42513C14.0416 5.36817 14.1832 5.33838 14.3264 5.33754C14.4697 5.3367 14.6116 5.36483 14.7437 5.42024C14.8757 5.47566 14.9952 5.55722 15.095 5.66001L15.6667 6.238C15.8765 6.45452 15.9938 6.74418 15.9938 7.04567C15.9938 7.34716 15.8765 7.63682 15.6667 7.85334L8.63034 15.0037C8.53215 15.1053 8.41465 15.1863 8.28474 15.242C8.15482 15.2976 8.01509 15.3267 7.87377 15.3277C7.73244 15.3286 7.59236 15.3013 7.46172 15.2474C7.33108 15.1935 7.21253 15.114 7.11301 15.0137L4.338 12.255Z" fill="#2D9D4C"/>
</g>
<defs>
<clipPath id="clip0_873_10334">
<rect width="20" height="20" fill="white"/>
</clipPath>
</defs>
</svg>
