<svg width="17" height="17" viewBox="0 0 17 17" fill="none" xmlns="http://www.w3.org/2000/svg">
<path d="M8.50017 1.83203C7.18162 1.83203 5.89269 2.22302 4.79636 2.95557C3.70004 3.68811 2.84555 4.7293 2.34097 5.94747C1.83638 7.16565 1.70436 8.50609 1.9616 9.7993C2.21883 11.0925 2.85377 12.2804 3.78612 13.2127C4.71847 14.1451 5.90636 14.78 7.19956 15.0373C8.49277 15.2945 9.83322 15.1625 11.0514 14.6579C12.2696 14.1533 13.3108 13.2988 14.0433 12.2025C14.7758 11.1062 15.1668 9.81724 15.1668 8.4987C15.1668 7.62322 14.9944 6.75631 14.6594 5.94747C14.3243 5.13864 13.8333 4.40371 13.2142 3.78465C12.5952 3.1656 11.8602 2.67453 11.0514 2.3395C10.2426 2.00447 9.37565 1.83203 8.50017 1.83203ZM8.50017 13.832C7.44533 13.832 6.41419 13.5192 5.53712 12.9332C4.66006 12.3472 3.97648 11.5142 3.57281 10.5397C3.16914 9.56514 3.06352 8.49278 3.26931 7.45822C3.4751 6.42365 3.98305 5.47334 4.72893 4.72746C5.47481 3.98158 6.42512 3.47363 7.45968 3.26784C8.49425 3.06206 9.56661 3.16767 10.5411 3.57134C11.5157 3.97501 12.3486 4.65859 12.9347 5.53566C13.5207 6.41272 13.8335 7.44386 13.8335 8.4987C13.8335 9.91319 13.2716 11.2697 12.2714 12.2699C11.2712 13.2701 9.91465 13.832 8.50017 13.832Z" fill="#4F4A3D"/>
<path d="M9 8H11C11.1768 8 11.3464 8.07024 11.4714 8.19526C11.5964 8.32029 11.6667 8.48986 11.6667 8.66667C11.6667 8.84348 11.5964 9.01305 11.4714 9.13807C11.3464 9.2631 11.1768 9.33333 11 9.33333H7.66667H5.66667C5.48986 9.33333 5.32029 9.2631 5.19526 9.13807C5.07024 9.01305 5 8.84348 5 8.66667C5 8.48986 5.07024 8.32029 5.19526 8.19526C5.32029 8.07024 5.48986 8 5.66667 8H9Z" fill="#4F4A3D"/>
</svg>
