<svg width="25" height="24" viewBox="0 0 25 24" fill="none" xmlns="http://www.w3.org/2000/svg">
<path fill-rule="evenodd" clip-rule="evenodd" d="M12.4306 23.2021C18.6092 23.2021 23.6196 18.1917 23.6196 12.0131C23.6196 5.8346 18.6092 0.824219 12.4306 0.824219C6.25208 0.824219 1.2417 5.8346 1.2417 12.0131C1.2417 18.1917 6.25208 23.2021 12.4306 23.2021Z" fill="#FFC10E"/>
<path fill-rule="evenodd" clip-rule="evenodd" d="M12.4362 6.68132H12.5137C14.2189 6.73114 15.5864 8.36436 15.5864 10.3741C15.5864 12.3837 14.2189 14.0225 12.5137 14.0668H12.4306C10.4874 14.0668 9.28047 12.1568 9.28047 10.3685C9.28047 8.35883 10.6479 6.72007 12.3531 6.67578H12.4362V6.68132ZM5.56006 20.6882C5.56006 20.6882 7.86871 16.1318 9.54068 15.3568C10.9082 14.7256 13.9697 14.7256 15.3317 15.3568C17.0037 16.1263 19.3123 20.6882 19.3123 20.6882C17.0369 22.5429 14.1691 23.0301 12.8182 23.1574V23.2017C12.8182 23.2017 12.6798 23.2017 12.4362 23.1851C12.1926 23.2017 12.0542 23.2017 12.0542 23.2017V23.1574C10.7033 23.0301 7.83549 22.5429 5.56006 20.6882Z" fill="white"/>
</svg>
