<svg width="25" height="24" viewBox="0 0 25 24" fill="none" xmlns="http://www.w3.org/2000/svg">
<g clip-path="url(#clip0_672_10841)">
<path d="M12.5 0C5.8835 0 0.5 5.3835 0.5 12C0.5 18.6165 5.8835 24 12.5 24C19.1165 24 24.5 18.6165 24.5 12C24.5 5.3835 19.1165 0 12.5 0ZM13.28 19.1205C12.71 19.215 11.576 19.452 11 19.5C10.5125 19.5405 10.052 19.26 9.7715 18.861C9.63322 18.6633 9.54466 18.4352 9.51332 18.196C9.48199 17.9568 9.50881 17.7136 9.5915 17.487L11.8565 11.25H9.5C9.4985 9.951 10.4735 8.994 11.72 8.628C12.314 8.4525 13.424 8.214 14 8.25C14.345 8.2725 14.948 8.49 15.2285 8.889C15.3668 9.08667 15.4553 9.31478 15.4867 9.55397C15.518 9.79316 15.4912 10.0364 15.4085 10.263L13.1435 16.5H15.5C15.5003 17.129 15.2773 17.7376 14.8708 18.2175C14.4642 18.6975 13.9005 19.0174 13.28 19.1205ZM14 7.5C13.6022 7.5 13.2206 7.34196 12.9393 7.06066C12.658 6.77936 12.5 6.39782 12.5 6C12.5 5.60218 12.658 5.22064 12.9393 4.93934C13.2206 4.65804 13.6022 4.5 14 4.5C14.3978 4.5 14.7794 4.65804 15.0607 4.93934C15.342 5.22064 15.5 5.60218 15.5 6C15.5 6.39782 15.342 6.77936 15.0607 7.06066C14.7794 7.34196 14.3978 7.5 14 7.5Z" fill="#D05555"/>
</g>
<defs>
<clipPath id="clip0_672_10841">
<rect width="24" height="24" fill="white" transform="translate(0.5)"/>
</clipPath>
</defs>
</svg>
