<svg width="24" height="24" viewBox="0 0 24 24" fill="none" xmlns="http://www.w3.org/2000/svg">
<path d="M9.4999 2.39844H14.2999C14.5999 2.39844 14.7999 2.19844 14.7999 1.89844C14.7999 1.59844 14.5999 1.39844 14.2999 1.39844H9.4999C9.1999 1.39844 8.9999 1.59844 8.9999 1.89844C8.9999 2.19844 9.2999 2.39844 9.4999 2.39844ZM9.7999 2.79844H10.6999V5.39844H9.7999V2.79844ZM13.1999 2.79844H14.0999V5.39844H13.1999V2.79844ZM7.6999 20.4984C7.5999 20.4984 7.4999 20.4984 7.3999 20.5984H7.2999C7.2999 20.5984 7.1999 20.6984 7.0999 20.6984L6.9999 20.7984V20.9984C6.9999 20.9984 6.9999 21.0984 6.8999 21.0984V21.3984C6.8999 21.8984 7.2999 22.2984 7.7999 22.2984C8.2999 22.2984 8.6999 21.8984 8.6999 21.3984C8.5999 20.8984 8.1999 20.4984 7.6999 20.4984ZM16.8999 20.9984C16.8999 20.8984 16.8999 20.8984 16.7999 20.8984L16.6999 20.7984C16.6999 20.7984 16.5999 20.6984 16.4999 20.6984H16.3999C16.2999 20.6984 16.1999 20.5984 16.0999 20.5984C15.5999 20.5984 15.1999 20.9984 15.1999 21.4984C15.1999 21.9984 15.5999 22.3984 16.0999 22.3984C16.5999 22.3984 16.9999 21.9984 16.9999 21.4984C16.9999 21.3984 16.9999 21.2984 16.8999 21.2984V20.9984Z" fill="#4F4A3D"/>
<path d="M16.7002 6H7.2002C6.7002 6 6.2002 6.5 6.2002 7V20C6.2002 20.1 6.2002 20.3 6.3002 20.4L6.4002 20.3L6.6002 20.1L6.7002 20C6.8002 20 6.8002 19.9 6.9002 19.9L7.0002 19.8C7.1002 19.8 7.2002 19.7 7.2002 19.7H7.3002C7.4002 19.7 7.6002 19.6 7.7002 19.6H8.1002C8.2002 19.6 8.3002 19.6 8.3002 19.7H8.4002C8.4002 19.7 8.5002 19.8 8.6002 19.8C8.6002 19.8 8.7002 19.8 8.7002 19.9C8.8002 19.9 8.8002 20 8.9002 20C8.9002 20 8.9002 20.1 9.0002 20.1C9.1002 20.1 9.1002 20.2 9.2002 20.3C9.3002 20.4 9.3002 20.5 9.3002 20.6V20.7C9.3002 20.7 9.3002 20.8 9.4002 20.9H14.4002V20.6C14.4002 20.5 14.5002 20.4 14.6002 20.3L14.8002 20.1L14.9002 20C15.0002 20.1 15.0002 20 15.1002 20L15.2002 19.9C15.3002 19.9 15.3002 19.8 15.4002 19.8H15.5002C15.6002 19.8 15.7002 19.7 15.7002 19.7H16.1002C16.3002 19.7 16.4002 19.7 16.5002 19.8H16.6002C16.7002 19.8 16.8002 19.9 16.8002 19.9C16.8002 19.9 16.9002 19.9 16.9002 20C17.0002 20 17.0002 20.1 17.1002 20.1L17.2002 20.2L17.4002 20.4L17.5002 20.5C17.6002 20.4 17.6002 20.2 17.6002 20.1V7C17.7002 6.5 17.2002 6 16.7002 6ZM9.5002 17.9C9.5002 18.2 9.3002 18.4 9.0002 18.4C8.7002 18.4 8.5002 18.2 8.5002 17.9V9C8.5002 8.7 8.7002 8.5 9.0002 8.5C9.3002 8.5 9.5002 8.7 9.5002 9V17.9ZM12.4002 17.9C12.4002 18.2 12.2002 18.4 11.9002 18.4C11.6002 18.4 11.4002 18.2 11.4002 17.9V9C11.4002 8.7 11.6002 8.5 11.9002 8.5C12.2002 8.5 12.4002 8.7 12.4002 9V17.9ZM15.3002 17.9C15.3002 18.2 15.1002 18.4 14.9002 18.4C14.6002 18.4 14.4002 18.2 14.4002 17.9V9C14.4002 8.7 14.6002 8.5 14.9002 8.5C15.1002 8.5 15.3002 8.7 15.3002 9V17.9Z" fill="#4F4A3D"/>
</svg>
