<svg width="18" height="8" viewBox="0 0 18 8" fill="none" xmlns="http://www.w3.org/2000/svg">
<path d="M14.4798 1.13555H14.3998H14.3629L14.327 1.1445C14.1198 1.19632 13.9461 1.34076 13.8981 1.55838C13.852 1.76717 13.939 1.96628 14.0822 2.10208C14.4362 2.44617 14.7904 2.79279 15.1449 3.13986L15.1452 3.14014C15.4407 3.4294 15.7366 3.71898 16.0325 4.0072C15.8173 4.21929 15.6018 4.42717 15.3848 4.63637L15.3816 4.63952L15.3816 4.63951L15.3801 4.64091L14.0687 5.9226C13.9848 5.99426 13.886 6.12135 13.8801 6.28972C13.8632 6.52141 14.0024 6.73767 14.2184 6.82408C14.4307 6.909 14.6762 6.86147 14.8495 6.68996C15.6359 5.93345 16.4124 5.17699 17.1889 4.41059C17.2574 4.35432 17.3252 4.27149 17.3564 4.16483C17.3962 4.04611 17.3921 3.92722 17.3483 3.8179C17.3081 3.71719 17.2411 3.64256 17.1919 3.59341L17.192 3.59337L17.1877 3.58924C16.6771 3.0986 16.1718 2.60437 15.6669 2.11049C15.4115 1.86072 15.1563 1.61103 14.9005 1.36196C14.8272 1.28884 14.7281 1.20209 14.5746 1.15094L14.4998 1.37549V1.13555H14.4798Z" fill="#FFC10E" stroke="#FFC10E" stroke-width="0.6"/>
<path d="M11.74 3.39531H1.34998C0.99099 3.39531 0.7 3.6863 0.7 4.04529C0.7 4.40427 0.99099 4.69526 1.34998 4.69526H11.74C12.0989 4.69526 12.39 4.40431 12.39 4.04529C12.39 3.68627 12.0989 3.39531 11.74 3.39531Z" fill="#FFC10E" stroke="#FFC10E" stroke-width="0.6"/>
</svg>
