<svg width="67" height="67" viewBox="0 0 67 67" fill="none" xmlns="http://www.w3.org/2000/svg">
<path d="M20.138 34.0221C20.048 34.0221 19.958 34.0121 19.878 34.0021C12.358 32.9521 6.68797 26.4421 6.68797 18.8421V10.8221C6.68797 9.77211 7.53797 8.91211 8.59797 8.91211H17.918C18.968 8.91211 19.828 9.76211 19.828 10.8221V22.4621C19.828 25.4921 20.528 28.5421 21.868 31.2621C22.178 31.8921 22.108 32.6521 21.698 33.2221C21.328 33.7321 20.748 34.0221 20.138 34.0221ZM10.508 12.7421V18.8521C10.508 23.3221 13.118 27.2921 16.968 29.1721C16.338 27.0021 16.008 24.7321 16.008 22.4721V12.7421H10.508ZM46.698 34.0221C46.088 34.0221 45.518 33.7321 45.148 33.2321C44.738 32.6621 44.668 31.9121 44.978 31.2721C46.308 28.5421 47.018 25.5021 47.018 22.4721V10.8321C47.018 9.78211 47.868 8.92211 48.928 8.92211H58.248C59.298 8.92211 60.158 9.77211 60.158 10.8321V18.8521C60.158 26.4421 54.488 32.9621 46.968 34.0121C46.868 34.0221 46.778 34.0221 46.698 34.0221ZM50.828 12.7421V22.4721C50.828 24.7321 50.498 26.9921 49.868 29.1721C53.718 27.2821 56.328 23.3121 56.328 18.8421V12.7321H50.828V12.7421Z" fill="#FF551A"/>
<path d="M40.148 51.5116H26.718L30.468 39.4316H36.398L40.148 51.5116Z" fill="#FCBD18"/>
<path d="M50.848 5.12305V21.903C50.848 30.343 46.528 38.203 39.388 42.713L39.108 42.903L34.858 45.583C33.988 46.133 32.878 46.133 32.018 45.583L27.768 42.903L27.488 42.713C23.578 40.243 20.508 36.763 18.528 32.723C16.908 29.413 16.028 25.713 16.028 21.903V5.12305H50.848Z" fill="#FCBD18"/>
<path d="M48.628 54.6015V63.9615H18.248V54.6015C18.248 52.9015 19.638 51.5215 21.328 51.5215H45.538C47.248 51.5115 48.628 52.8915 48.628 54.6015Z" fill="#1C6BE4"/>
<path d="M54.238 63.4531H12.648C12.368 63.4531 12.148 63.6731 12.148 63.9531C12.148 64.2331 12.368 64.4531 12.648 64.4531H54.238C54.518 64.4531 54.738 64.2331 54.738 63.9531C54.738 63.6831 54.508 63.4531 54.238 63.4531Z" fill="#4E0C6E"/>
<path d="M44.818 55.332H22.068V60.132H44.818V55.332Z" fill="#9CCFFE"/>
<path d="M51.468 5.1218H15.408C14.508 5.1218 13.768 4.3918 13.768 3.4818C13.768 2.5818 14.498 1.8418 15.408 1.8418H51.468C52.368 1.8418 53.108 2.5718 53.108 3.4818C53.098 4.3918 52.368 5.1218 51.468 5.1218Z" fill="#FCBD18"/>
<path d="M31.718 25.0733V28.1833H29.328V31.6333H31.718V34.7533H35.168V31.6333H37.558V28.1833H35.168V25.0733C38.318 24.3033 40.648 21.4633 40.648 18.0733C40.648 14.0833 37.418 10.8633 33.438 10.8633C29.448 10.8633 26.228 14.0933 26.228 18.0733C26.228 21.4633 28.568 24.3033 31.718 25.0733ZM33.448 21.9533C31.298 21.9533 29.558 20.2133 29.558 18.0733C29.558 15.9233 31.298 14.1833 33.448 14.1833C35.588 14.1833 37.328 15.9233 37.328 18.0733C37.318 20.2133 35.578 21.9533 33.448 21.9533Z" fill="#FF551A"/>
</svg>
