<svg width="588" height="360" viewBox="0 0 588 360" fill="none" xmlns="http://www.w3.org/2000/svg">
<path fill-rule="evenodd" clip-rule="evenodd" d="M218.947 267.994C190.269 268.783 163.001 275.843 135.003 269.591C90.7184 259.701 34.0779 260.748 11.1933 221.599C-11.1934 183.301 2.46628 126.543 32.0635 93.4894C60.4393 61.7997 111.658 73.8196 152.904 63.3386C175.517 57.5924 196.938 53.7418 218.947 45.9998C257.7 32.3672 289.832 -5.63663 330.393 0.90213C376.806 8.38419 423.924 38.3509 441.568 81.888C459.412 125.918 447.904 181.474 418.795 219.033C392.061 253.527 342.009 254.675 299.599 265.065C272.816 271.627 246.513 267.237 218.947 267.994Z" fill="#DEDEDE"/>
<path fill-rule="evenodd" clip-rule="evenodd" d="M335.136 212.646C300.304 213.751 270.016 272.385 270.016 272.385L533.242 272.37L559.466 272.491C559.466 272.491 547.825 226.369 530.859 225.754C521.594 225.417 511.715 237.89 503.077 248.795C496.438 257.177 490.532 264.633 486.204 264.633C481.805 264.633 475.666 254.538 468.753 243.17C460.015 228.799 450.038 212.392 440.771 211.764C427.266 210.849 418.924 227.012 412.11 240.216C410.55 243.239 409.07 246.108 407.626 248.58C399.877 261.849 389.342 263.508 379.402 257.426C376.261 255.504 374.163 250.215 371.664 243.914C366.253 230.274 358.961 211.891 335.136 212.646ZM95.0059 225.585C67.8323 226.451 44.2031 272.407 44.2031 272.407L249.557 272.395L270.016 272.49C270.016 272.49 260.934 236.341 247.698 235.859C240.47 235.595 232.763 245.371 226.024 253.918C220.844 260.488 216.237 266.332 212.86 266.332C209.429 266.332 204.64 258.42 199.247 249.509C192.429 238.245 184.646 225.386 177.417 224.894C166.881 224.176 160.373 236.845 155.057 247.194C153.84 249.564 152.685 251.812 151.558 253.75C145.513 264.15 137.294 265.45 129.54 260.683C127.09 259.177 125.453 255.031 123.503 250.093C119.282 239.402 113.593 224.993 95.0059 225.585Z" fill="white"/>
<g filter="url(#filter0_d_383_883)">
<path fill-rule="evenodd" clip-rule="evenodd" d="M409.685 135.05C421.533 135.05 432.124 129.667 439.143 121.213C442.5 123.089 446.369 124.158 450.488 124.158C463.348 124.158 473.772 113.736 473.772 100.881C473.772 88.0248 463.348 77.6031 450.488 77.6031C448.02 77.6031 445.641 77.987 443.409 78.6983C436.952 66.6962 424.271 58.5371 409.685 58.5371C393.827 58.5371 380.223 68.1796 374.417 81.9194C373.024 81.6595 371.587 81.5235 370.119 81.5235C357.259 81.5235 346.834 91.9452 346.834 104.801C346.834 117.657 357.259 128.079 370.119 128.079C374.877 128.079 379.301 126.652 382.988 124.203C389.883 130.915 399.301 135.05 409.685 135.05Z" fill="white"/>
</g>
<g filter="url(#filter1_d_383_883)">
<path d="M231.967 225.641L377.977 227.217C377.977 227.217 388.224 226.599 398.737 218.562C406.74 212.453 409.517 208.051 409.517 203.724C409.517 199.396 405.509 177.139 366.227 172.811L136.26 170.523C136.26 170.523 141.024 177.621 151.201 185.416C158.13 191.912 166.141 196.392 170.689 199.058C176.968 202.739 178.609 203.547 181.515 205.121C210.314 220.711 222.656 223.959 231.967 225.641Z" fill="#3C3B39"/>
</g>
<path fill-rule="evenodd" clip-rule="evenodd" d="M120.453 141.242H128.465C142.539 147.738 154.881 157.915 174.802 171.34L178.455 175.426C182.656 181.39 181.227 189.63 175.263 193.831C169.3 198.032 164.279 196.792 160.078 190.828L150.957 182.261C144.508 173.106 139.724 179.135 127.165 158.348L120.911 148.821L120.453 141.242Z" fill="#3C3B39"/>
<g filter="url(#filter2_d_383_883)">
<path d="M388.642 196.025C396.774 196.025 403.366 193.117 403.366 189.529C403.366 185.942 396.774 183.033 388.642 183.033C380.51 183.033 373.917 185.942 373.917 189.529C373.917 193.117 380.51 196.025 388.642 196.025Z" fill="white"/>
<path d="M227.484 199.523C229.031 199.523 230.285 198.269 230.285 196.723C230.285 195.176 229.031 193.922 227.484 193.922C225.937 193.922 224.682 195.176 224.682 196.723C224.682 198.269 225.937 199.523 227.484 199.523Z" fill="white"/>
<path d="M238.837 199.79C240.458 199.79 241.772 198.476 241.772 196.856C241.772 195.235 240.458 193.922 238.837 193.922C237.216 193.922 235.902 195.235 235.902 196.856C235.902 198.476 237.216 199.79 238.837 199.79Z" fill="white"/>
<path d="M250.323 199.79C251.944 199.79 253.258 198.476 253.258 196.856C253.258 195.235 251.944 193.922 250.323 193.922C248.702 193.922 247.388 195.235 247.388 196.856C247.388 198.476 248.702 199.79 250.323 199.79Z" fill="white"/>
<path d="M261.81 199.79C263.43 199.79 264.744 198.476 264.744 196.856C264.744 195.235 263.43 193.922 261.81 193.922C260.189 193.922 258.875 195.235 258.875 196.856C258.875 198.476 260.189 199.79 261.81 199.79Z" fill="white"/>
<path d="M273.163 199.523C274.71 199.523 275.964 198.269 275.964 196.723C275.964 195.176 274.71 193.922 273.163 193.922C271.615 193.922 270.361 195.176 270.361 196.723C270.361 198.269 271.615 199.523 273.163 199.523Z" fill="white"/>
<path d="M284.516 199.79C286.136 199.79 287.45 198.476 287.45 196.856C287.45 195.235 286.136 193.922 284.516 193.922C282.895 193.922 281.581 195.235 281.581 196.856C281.581 198.476 282.895 199.79 284.516 199.79Z" fill="white"/>
<path d="M296.002 199.79C297.623 199.79 298.937 198.476 298.937 196.856C298.937 195.235 297.623 193.922 296.002 193.922C294.381 193.922 293.067 195.235 293.067 196.856C293.067 198.476 294.381 199.79 296.002 199.79Z" fill="white"/>
<path d="M307.488 199.79C309.109 199.79 310.423 198.476 310.423 196.856C310.423 195.235 309.109 193.922 307.488 193.922C305.867 193.922 304.553 195.235 304.553 196.856C304.553 198.476 305.867 199.79 307.488 199.79Z" fill="white"/>
</g>
<g filter="url(#filter3_d_383_883)">
<path fill-rule="evenodd" clip-rule="evenodd" d="M164.331 200.879C164.331 215.98 152.086 228.222 136.981 228.222C130.141 228.222 123.888 225.712 119.092 221.563C115.772 223.6 111.865 224.774 107.683 224.774C95.6166 224.774 85.8344 214.995 85.8344 202.931C85.8344 190.868 95.6166 181.088 107.683 181.088C110.776 181.088 113.718 181.731 116.384 182.889C121.398 177.157 128.766 173.537 136.981 173.537C152.086 173.537 164.331 185.779 164.331 200.879Z" fill="white"/>
</g>
<path d="M476.266 340.403C501.609 340.403 522.153 338.45 522.153 336.041C522.153 333.631 501.609 331.678 476.266 331.678C450.923 331.678 430.378 333.631 430.378 336.041C430.378 338.45 450.923 340.403 476.266 340.403Z" fill="#EFA28E"/>
<path d="M477.001 185.284L464.188 210.153C464.188 210.153 445.363 238.471 447.559 239.505C448.513 239.955 452.916 242.15 454.874 240.667C461.419 235.713 470.625 221.978 473.495 216.646C478.643 207.084 488.234 187.133 485.641 184.431C483.048 181.728 478.27 181.584 477.001 185.284Z" fill="#D47328"/>
<path d="M449.295 238.659C449.295 238.659 446.61 242.748 446.415 243.691C446.219 244.633 446.895 245.22 447.641 245.255C448.388 245.291 448.637 245.131 449.224 245.344C449.81 245.558 450.646 245.558 451.144 245.344C451.642 245.131 451.766 243.392 452.015 242.537C452.264 241.682 452.637 240.007 451.891 239.146C451.144 238.286 449.739 238.215 449.295 238.659Z" fill="#F27C79"/>
<path d="M457.72 270.147H455.587V245.513C455.587 245.048 455.209 244.671 454.745 244.671H447.041C446.577 244.671 446.199 245.048 446.199 245.513V270.147H444.066V245.513C444.066 243.872 445.4 242.537 447.041 242.537H454.745C456.385 242.537 457.72 243.872 457.72 245.513V270.147Z" fill="#3F434C"/>
<path d="M449.056 239.119C449.056 239.119 447.792 241.505 447.606 242.381C447.419 243.256 447.819 243.95 448.166 244.456C448.512 244.963 450.477 244.958 451.028 244.76C451.579 244.563 450.753 243.683 450.192 243.336C449.632 242.989 450.353 241.549 450.726 240.776C451.099 240.003 449.962 238.904 449.056 239.119Z" fill="#F27C79"/>
<path d="M438.353 327.734C437.099 327.734 436.073 328.761 436.073 330.015V333.103C436.073 334.358 437.099 335.384 438.353 335.384C439.608 335.384 440.634 334.358 440.634 333.103V330.015C440.634 328.761 439.608 327.734 438.353 327.734ZM461.198 327.734C459.943 327.734 458.917 328.761 458.917 330.015V333.103C458.917 334.358 459.943 335.384 461.198 335.384C462.452 335.384 463.479 334.358 463.479 333.103V330.015C463.479 328.761 462.452 327.734 461.198 327.734Z" fill="#3F434C"/>
<path d="M461.589 269.309H440.192C434.795 269.309 430.378 273.725 430.378 279.123V320.622C430.378 326.02 434.795 330.436 440.192 330.436H461.589C466.987 330.436 471.404 326.02 471.404 320.622V279.123C471.404 273.725 466.987 269.309 461.589 269.309Z" fill="#FF5F4A"/>
<path d="M463.302 322.593H438.479C435.317 322.593 432.447 321.466 430.378 319.656V320.623C430.378 326.021 434.795 330.437 440.192 330.437H461.589C466.987 330.437 471.404 326.021 471.404 320.623V319.656C469.335 321.466 466.465 322.593 463.302 322.593Z" fill="#C9473D"/>
<path d="M492.141 173.165C491.668 171.961 490.837 169.539 489.561 168.866C488.852 168.491 488.231 168.56 487.819 168.695C487.602 168.489 487.001 168.236 486.159 168.601C485.347 168.952 484.726 169.451 483.684 171.351C483.337 171.983 482.438 177.691 482.843 179.229C483.248 180.768 486.168 180.991 487.054 180.788C487.231 180.748 487.424 180.28 487.609 179.551C487.799 180.652 487.99 181.371 488.158 181.32C488.818 181.12 493.359 178.769 493.273 177.924C493.188 177.078 492.614 174.369 492.141 173.165ZM510.536 333.096C509.087 333.446 508.411 334.745 508.321 335.285C508.212 335.941 506.513 335.666 505.339 335.078C504.164 334.489 503.819 333.538 502.666 332.302C501.952 331.537 501.269 331.298 500.851 331.228C500.761 331.842 500.645 332.388 500.496 332.737C499.933 334.057 500.361 336.227 501.511 336.527C502.661 336.828 512.553 337.535 514.573 336.422C515.795 335.749 513.052 334.407 510.536 333.096Z" fill="#434A59"/>
<path d="M502.666 332.302C503.819 333.539 504.164 334.49 505.338 335.079C506.513 335.667 508.212 335.942 508.321 335.286C508.411 334.746 509.087 333.447 510.536 333.097C508.892 332.239 507.345 331.395 507.068 330.758C506.365 329.147 506.011 324.787 506.135 319.981C506.158 319.091 498.08 318.866 499.156 321.833C499.156 321.833 501.104 329.513 500.851 331.228C501.269 331.299 501.952 331.538 502.666 332.302Z" fill="#FF867A"/>
<path d="M460.608 333.095C462.058 333.445 462.734 334.744 462.824 335.284C462.933 335.94 464.631 335.665 465.806 335.077C466.981 334.488 467.325 333.537 468.479 332.301C469.192 331.536 469.875 331.297 470.294 331.227C470.384 331.841 470.5 332.387 470.649 332.736C471.212 334.056 470.784 336.226 469.634 336.526C468.484 336.827 458.592 337.534 456.572 336.421C455.35 335.748 458.093 334.406 460.608 333.095Z" fill="#434A59"/>
<path d="M468.479 332.302C467.326 333.539 466.981 334.49 465.806 335.079C464.631 335.667 462.933 335.942 462.824 335.286C462.734 334.746 462.058 333.447 460.608 333.097C462.252 332.239 463.799 331.395 464.077 330.758C464.78 329.147 465.134 324.787 465.01 319.981C464.987 319.091 473.064 318.866 471.989 321.833C471.989 321.833 470.04 329.513 470.293 331.228C469.875 331.299 469.192 331.538 468.479 332.302Z" fill="#FF867A"/>
<path d="M504.426 235.302C502.641 222.335 498.869 215.707 497.513 214.057H497.511C494.426 210.303 472.864 194.967 466.171 217.624C465.572 219.651 463.669 226.126 463.363 230.335C461.571 254.988 463.717 329.365 463.717 329.365L471.934 329.309C471.934 329.309 480.237 246.316 481.979 246.046C483.046 245.88 497.522 328.304 497.522 328.304L508.794 328.519C508.794 328.519 505.127 240.387 504.426 235.302Z" fill="#3B3B39"/>
<path d="M504.678 238.492C500.304 238.705 490.485 239.087 487.906 238.38C484.559 237.462 475.057 233.197 475.057 233.197L465.445 242.556C465.445 242.556 469.186 245.669 481.744 246.451C481.832 246.196 481.91 246.057 481.979 246.046C482.025 246.039 482.097 246.19 482.191 246.478C482.998 246.524 483.84 246.561 484.721 246.586C495.111 246.886 501.903 246.144 505.082 245.663C504.929 242.733 504.792 240.29 504.678 238.492Z" fill="#323944"/>
<path d="M461.668 239.622C461.668 223.21 470.446 204.058 473.503 192.682C474.696 188.243 477.988 181.496 483.028 180.444H483.028C484.847 180.064 486.875 180.303 489.092 180.99C492.162 181.753 493.375 183.063 493.375 183.063C499.24 186.012 495.363 198.045 496.169 205.499C497.201 215.038 505.074 225.909 506.262 240.162C507.475 242.486 492.409 244.575 480.779 244.693C480.06 244.701 477.814 235.491 477.095 235.483C476.171 235.473 475.185 244.407 474.274 244.371C466.048 244.039 463.88 242.805 461.668 239.622Z" fill="#FFAE43"/>
<path d="M485.571 180.626C485.571 180.626 479.613 192.164 481.507 191.357C483.401 190.549 489.026 182.591 489.072 181.513C489.119 180.436 486.718 179.997 485.571 180.626Z" fill="white"/>
<path d="M477.095 234.278C477.089 234.278 477.083 234.277 477.077 234.277C476.978 234.267 476.905 234.179 476.915 234.08C476.922 234.016 477.55 227.507 477.9 211.49C478.007 206.592 480.576 192.172 480.602 192.027C480.62 191.929 480.712 191.864 480.811 191.882C480.909 191.899 480.974 191.993 480.956 192.09C480.93 192.235 478.366 206.628 478.26 211.498C477.909 227.532 477.28 234.051 477.273 234.116C477.264 234.208 477.186 234.278 477.095 234.278Z" fill="#D47328"/>
<path d="M487.923 175.531L488.494 180.693C488.585 181.544 486.704 183.935 485.256 182.99C484.832 182.714 485.233 181.494 485.517 180.574L486.094 176.035L487.923 175.531Z" fill="#FF867A"/>
<path d="M487.596 172.221L488.102 174.175C488.502 175.724 487.65 177.382 486.11 177.815C484.688 178.214 483.209 177.518 482.816 175.711C482.466 174.104 483.482 172.588 483.827 171.812C484.614 170.043 486.851 170.018 487.596 172.221Z" fill="#FF867A"/>
<path d="M488.001 174.254C488.106 174.112 488.189 173.955 488.262 173.794C488.402 173.487 488.68 173.063 489.034 173.494C489.548 174.12 488.716 175.715 487.901 175.495C487.295 175.332 487.734 174.613 488.001 174.254Z" fill="#FF867A"/>
<path d="M485.371 175.099C485.371 175.099 483.924 175.122 483.19 174.961C483.19 174.961 483.23 175.798 483.658 176.106C484.04 176.38 484.956 176.389 485.371 175.099Z" fill="white"/>
<path d="M492.458 178.897C492.458 178.897 489.103 181.178 488.344 181.328C487.584 181.477 488.086 179.184 488.344 178.382C488.602 177.579 489.006 176.289 489.006 176.289L492.458 178.897Z" fill="#434A59"/>
<path d="M492.115 184.071C485.746 190.88 507.762 208.196 507.762 208.196L498.827 233.197L504.764 236.76C504.764 236.76 521.852 216.198 519.314 207.239C517.637 201.319 512.539 197.585 508.149 193.474C501.155 186.926 494.166 181.878 492.115 184.071Z" fill="#FFAE43"/>
<path d="M484.353 174.291C484.14 174.204 483.963 174.077 483.813 173.901C483.7 173.768 483.516 173.968 483.628 174.1C483.79 174.29 483.994 174.436 484.225 174.53C484.386 174.595 484.515 174.357 484.353 174.291Z" fill="#C66C67"/>
<path d="M485.595 173.059C485.566 173.049 485.481 173.01 485.413 173.104C485.362 173.174 485.323 173.27 485.32 173.361C485.316 173.467 485.413 173.547 485.515 173.527C485.656 173.5 485.785 173.13 485.595 173.059ZM483.833 172.769C483.804 172.758 483.719 172.72 483.651 172.813C483.6 172.884 483.561 172.98 483.558 173.071C483.554 173.177 483.651 173.257 483.753 173.237C483.894 173.209 484.023 172.84 483.833 172.769Z" fill="#434A59"/>
<path d="M485.584 172.379C485.824 172.475 486.071 172.618 486.263 172.798C486.354 172.884 486.224 173.014 486.133 172.929C485.969 172.774 485.745 172.643 485.539 172.56C485.425 172.514 485.469 172.332 485.584 172.379Z" fill="#434A59"/>
<path d="M483.536 172.1C483.693 172.132 483.847 172.179 484.001 172.226C484.118 172.262 484.074 172.444 483.956 172.407C483.802 172.36 483.648 172.314 483.491 172.281C483.371 172.256 483.416 172.075 483.536 172.1Z" fill="#434A59"/>
<path d="M483.783 171.033C483.783 171.033 484.147 172.479 485.42 172.87C486.255 173.126 485.593 172.198 485.593 172.198C485.593 172.198 486.36 172.821 486.716 173.118C487.842 174.054 488.338 173.323 488.307 172.609C488.276 171.894 487.646 170 486.126 169.928C484.606 169.856 483.577 170.27 483.783 171.033Z" fill="#434A59"/>
<path d="M485.859 177.979C485.805 177.979 485.759 177.938 485.753 177.883C485.747 177.825 485.79 177.772 485.849 177.767C485.859 177.765 486.847 177.659 487.316 176.956C487.349 176.907 487.416 176.894 487.464 176.926C487.513 176.959 487.527 177.025 487.494 177.074C486.968 177.863 485.914 177.974 485.87 177.979C485.866 177.979 485.862 177.979 485.859 177.979Z" fill="#C66C67"/>
<path d="M496.295 198.581C496.194 198.581 496.094 198.538 496.025 198.455C495.906 198.313 493.096 194.935 491.738 191.196C491.672 191.013 491.766 190.81 491.95 190.744C492.133 190.678 492.335 190.772 492.401 190.955C493.717 194.579 496.537 197.968 496.565 198.002C496.69 198.152 496.671 198.374 496.522 198.499C496.455 198.554 496.375 198.581 496.295 198.581Z" fill="#D47328"/>
<path d="M513.554 207.152C510.749 206.801 507.742 207.918 507.615 207.965C507.541 207.993 507.484 208.066 507.453 208.157C507.429 208.23 507.423 208.314 507.438 208.397C507.474 208.585 507.611 208.697 507.744 208.647C507.774 208.636 510.792 207.514 513.51 207.855C513.647 207.872 513.768 207.729 513.781 207.535C513.793 207.341 513.691 207.17 513.554 207.152Z" fill="#D47328"/>
<path d="M499.353 232.217C497.998 232.013 496.472 230.994 496.754 232.042C497.036 233.089 498.452 233.204 498.722 233.916C498.993 234.627 494.877 236.792 495.457 237.413C495.842 237.826 497.821 236.157 497.875 236.317C497.929 236.478 495.813 237.923 496.317 238.417C496.934 239.022 497.952 239.212 498.964 238.813C498.758 239.082 498.632 239.341 498.758 239.484C499.095 239.868 505.992 234.965 502.488 232.834C501.73 232.373 501.44 232.531 499.353 232.217Z" fill="#FF867A"/>
<defs>
<filter id="filter0_d_383_883" x="341.218" y="51.9844" width="147.532" height="97.108" filterUnits="userSpaceOnUse" color-interpolation-filters="sRGB">
<feFlood flood-opacity="0" result="BackgroundImageFix"/>
<feColorMatrix in="SourceAlpha" type="matrix" values="0 0 0 0 0 0 0 0 0 0 0 0 0 0 0 0 0 0 127 0" result="hardAlpha"/>
<feOffset dx="4.68053" dy="3.74442"/>
<feGaussianBlur stdDeviation="5.14858"/>
<feComposite in2="hardAlpha" operator="out"/>
<feColorMatrix type="matrix" values="0 0 0 0 0 0 0 0 0 0 0 0 0 0 0 0 0 0 0.22 0"/>
<feBlend mode="normal" in2="BackgroundImageFix" result="effect1_dropShadow_383_883"/>
<feBlend mode="normal" in="SourceGraphic" in2="effect1_dropShadow_383_883" result="shape"/>
</filter>
<filter id="filter1_d_383_883" x="130.643" y="163.971" width="293.851" height="77.2877" filterUnits="userSpaceOnUse" color-interpolation-filters="sRGB">
<feFlood flood-opacity="0" result="BackgroundImageFix"/>
<feColorMatrix in="SourceAlpha" type="matrix" values="0 0 0 0 0 0 0 0 0 0 0 0 0 0 0 0 0 0 127 0" result="hardAlpha"/>
<feOffset dx="4.68053" dy="3.74442"/>
<feGaussianBlur stdDeviation="5.14858"/>
<feComposite in2="hardAlpha" operator="out"/>
<feColorMatrix type="matrix" values="0 0 0 0 0 0 0 0 0 0 0 0 0 0 0 0 0 0 0.22 0"/>
<feBlend mode="normal" in2="BackgroundImageFix" result="effect1_dropShadow_383_883"/>
<feBlend mode="normal" in="SourceGraphic" in2="effect1_dropShadow_383_883" result="shape"/>
</filter>
<filter id="filter2_d_383_883" x="219.066" y="176.48" width="199.278" height="37.3502" filterUnits="userSpaceOnUse" color-interpolation-filters="sRGB">
<feFlood flood-opacity="0" result="BackgroundImageFix"/>
<feColorMatrix in="SourceAlpha" type="matrix" values="0 0 0 0 0 0 0 0 0 0 0 0 0 0 0 0 0 0 127 0" result="hardAlpha"/>
<feOffset dx="4.68053" dy="3.74442"/>
<feGaussianBlur stdDeviation="5.14858"/>
<feComposite in2="hardAlpha" operator="out"/>
<feColorMatrix type="matrix" values="0 0 0 0 0 0 0 0 0 0 0 0 0 0 0 0 0 0 0.22 0"/>
<feBlend mode="normal" in2="BackgroundImageFix" result="effect1_dropShadow_383_883"/>
<feBlend mode="normal" in="SourceGraphic" in2="effect1_dropShadow_383_883" result="shape"/>
</filter>
<filter id="filter3_d_383_883" x="80.2177" y="166.984" width="99.0908" height="75.2799" filterUnits="userSpaceOnUse" color-interpolation-filters="sRGB">
<feFlood flood-opacity="0" result="BackgroundImageFix"/>
<feColorMatrix in="SourceAlpha" type="matrix" values="0 0 0 0 0 0 0 0 0 0 0 0 0 0 0 0 0 0 127 0" result="hardAlpha"/>
<feOffset dx="4.68053" dy="3.74442"/>
<feGaussianBlur stdDeviation="5.14858"/>
<feComposite in2="hardAlpha" operator="out"/>
<feColorMatrix type="matrix" values="0 0 0 0 0 0 0 0 0 0 0 0 0 0 0 0 0 0 0.22 0"/>
<feBlend mode="normal" in2="BackgroundImageFix" result="effect1_dropShadow_383_883"/>
<feBlend mode="normal" in="SourceGraphic" in2="effect1_dropShadow_383_883" result="shape"/>
</filter>
</defs>
</svg>
