<svg width="42" height="43" viewBox="0 0 42 43" fill="none" xmlns="http://www.w3.org/2000/svg">
<path d="M21 41.1523C32.0457 41.1523 41 32.198 41 21.1523C41 10.1066 32.0457 1.15234 21 1.15234C9.95431 1.15234 1 10.1066 1 21.1523C1 32.198 9.95431 41.1523 21 41.1523Z" fill="#FEFEFE" stroke="#BFBFBF" stroke-opacity="0.24" stroke-width="2"/>
<path fill-rule="evenodd" clip-rule="evenodd" d="M18.9447 31.1523V22.3181H16V18.6372H18.9447V15.6924C18.9447 12.6497 20.8714 11.1523 23.5857 11.1523C24.8858 11.1523 26.0033 11.2495 26.3287 11.2922V14.4725L24.4463 14.4733C22.9702 14.4733 22.6257 15.1749 22.6257 16.2041V18.6372H26.3066L25.5704 22.3181H22.6257L22.6846 31.1523" fill="#1771E6"/>
</svg>
