<svg width="42" height="42" viewBox="0 0 42 42" fill="none" xmlns="http://www.w3.org/2000/svg">
<path d="M21 41.1523C32.0457 41.1523 41 32.198 41 21.1523C41 10.1066 32.0457 1.15234 21 1.15234C9.95431 1.15234 1 10.1066 1 21.1523C1 32.198 9.95431 41.1523 21 41.1523Z" fill="#FEFEFE"/>
<path d="M40.5 21.1523C40.5 31.9219 31.7696 40.6523 21 40.6523C10.2304 40.6523 1.5 31.9219 1.5 21.1523C1.5 10.3828 10.2304 1.65234 21 1.65234C31.7696 1.65234 40.5 10.3828 40.5 21.1523Z" stroke="#BFBFBF" stroke-opacity="0.24"/>
<path d="M21.0001 40.485C31.6776 40.485 40.3334 31.8292 40.3334 21.1517C40.3334 10.4742 31.6776 1.81836 21.0001 1.81836C10.3226 1.81836 1.66675 10.4742 1.66675 21.1517C1.66675 31.8292 10.3226 40.485 21.0001 40.485Z" stroke="#BFBFBF" stroke-opacity="0.24" stroke-width="2"/>
<g clip-path="url(#clip0_416_499)">
<path d="M17.6672 21.1523C17.6672 19.3115 19.1591 17.8187 21 17.8187C22.8409 17.8187 24.3336 19.3115 24.3336 21.1523C24.3336 22.9932 22.8409 24.4859 21 24.4859C19.1591 24.4859 17.6672 22.9932 17.6672 21.1523ZM15.8651 21.1523C15.8651 23.9883 18.164 26.2872 21 26.2872C23.836 26.2872 26.1349 23.9883 26.1349 21.1523C26.1349 18.3163 23.836 16.0175 21 16.0175C18.164 16.0175 15.8651 18.3163 15.8651 21.1523ZM25.1382 15.8139C25.1381 16.0512 25.2084 16.2832 25.3401 16.4806C25.4719 16.678 25.6593 16.8319 25.8785 16.9228C26.0977 17.0137 26.339 17.0376 26.5718 16.9914C26.8046 16.9452 27.0185 16.831 27.1863 16.6632C27.3542 16.4955 27.4686 16.2817 27.515 16.0489C27.5614 15.8162 27.5377 15.5749 27.447 15.3556C27.3563 15.1363 27.2025 14.9488 27.0052 14.8168C26.808 14.6849 26.576 14.6144 26.3386 14.6143H26.3382C26.02 14.6145 25.715 14.7409 25.49 14.9658C25.265 15.1907 25.1384 15.4957 25.1382 15.8139ZM16.96 29.2921C15.985 29.2477 15.4551 29.0853 15.103 28.9481C14.6361 28.7663 14.303 28.5499 13.9527 28.2001C13.6025 27.8503 13.3857 27.5175 13.2047 27.0507C13.0674 26.6987 12.905 26.1686 12.8607 25.1936C12.8122 24.1395 12.8026 23.8229 12.8026 21.1524C12.8026 18.4819 12.813 18.1662 12.8607 17.1112C12.9051 16.1363 13.0687 15.6072 13.2047 15.2542C13.3865 14.7873 13.603 14.4542 13.9527 14.1039C14.3025 13.7537 14.6353 13.5369 15.103 13.3559C15.455 13.2187 15.985 13.0563 16.96 13.0119C18.0141 12.9635 18.3307 12.9538 21 12.9538C23.6693 12.9538 23.9862 12.9643 25.0412 13.0119C26.0162 13.0563 26.5452 13.2199 26.8982 13.3559C27.3651 13.5369 27.6982 13.7542 28.0485 14.1039C28.3987 14.4537 28.6147 14.7873 28.7965 15.2542C28.9338 15.6062 29.0962 16.1363 29.1405 17.1112C29.189 18.1662 29.1986 18.4819 29.1986 21.1524C29.1986 23.8229 29.189 24.1387 29.1405 25.1936C29.0961 26.1686 28.9329 26.6985 28.7965 27.0507C28.6147 27.5175 28.3982 27.8507 28.0485 28.2001C27.6987 28.5495 27.3651 28.7663 26.8982 28.9481C26.5462 29.0854 26.0162 29.2478 25.0412 29.2921C23.9871 29.3406 23.6705 29.3503 21 29.3503C18.3295 29.3503 18.0138 29.3406 16.96 29.2921ZM16.8772 11.2129C15.8126 11.2614 15.0852 11.4302 14.4499 11.6774C13.792 11.9327 13.235 12.2751 12.6785 12.8308C12.1219 13.3865 11.7803 13.9443 11.525 14.6023C11.2778 15.2379 11.109 15.965 11.0606 17.0295C11.0113 18.0958 11 18.4367 11 21.1523C11 23.868 11.0113 24.2089 11.0606 25.2751C11.109 26.3398 11.2778 27.0667 11.525 27.7024C11.7803 28.3599 12.122 28.9184 12.6785 29.4739C13.235 30.0293 13.792 30.3713 14.4499 30.6273C15.0864 30.8745 15.8126 31.0433 16.8772 31.0918C17.944 31.1403 18.2843 31.1523 21 31.1523C23.7157 31.1523 24.0566 31.1411 25.1228 31.0918C26.1874 31.0433 26.9144 30.8745 27.5501 30.6273C28.2076 30.3713 28.765 30.0295 29.3215 29.4739C29.8781 28.9182 30.219 28.3599 30.475 27.7024C30.7222 27.0667 30.8918 26.3397 30.9394 25.2751C30.9879 24.2081 30.9992 23.868 30.9992 21.1523C30.9992 18.4367 30.9879 18.0958 30.9394 17.0295C30.891 15.9649 30.7222 15.2375 30.475 14.6023C30.219 13.9447 29.8772 13.3874 29.3215 12.8308C28.7658 12.2743 28.2076 11.9327 27.5509 11.6774C26.9144 11.4302 26.1874 11.2606 25.1236 11.2129C24.0574 11.1644 23.7165 11.1523 21.0008 11.1523C18.2851 11.1523 17.944 11.1636 16.8772 11.2129Z" fill="url(#paint0_radial_416_499)"/>
<path d="M17.6672 21.1523C17.6672 19.3115 19.1591 17.8187 21 17.8187C22.8409 17.8187 24.3336 19.3115 24.3336 21.1523C24.3336 22.9932 22.8409 24.4859 21 24.4859C19.1591 24.4859 17.6672 22.9932 17.6672 21.1523ZM15.8651 21.1523C15.8651 23.9883 18.164 26.2872 21 26.2872C23.836 26.2872 26.1349 23.9883 26.1349 21.1523C26.1349 18.3163 23.836 16.0175 21 16.0175C18.164 16.0175 15.8651 18.3163 15.8651 21.1523ZM25.1382 15.8139C25.1381 16.0512 25.2084 16.2832 25.3401 16.4806C25.4719 16.678 25.6593 16.8319 25.8785 16.9228C26.0977 17.0137 26.339 17.0376 26.5718 16.9914C26.8046 16.9452 27.0185 16.831 27.1863 16.6632C27.3542 16.4955 27.4686 16.2817 27.515 16.0489C27.5614 15.8162 27.5377 15.5749 27.447 15.3556C27.3563 15.1363 27.2025 14.9488 27.0052 14.8168C26.808 14.6849 26.576 14.6144 26.3386 14.6143H26.3382C26.02 14.6145 25.715 14.7409 25.49 14.9658C25.265 15.1907 25.1384 15.4957 25.1382 15.8139ZM16.96 29.2921C15.985 29.2477 15.4551 29.0853 15.103 28.9481C14.6361 28.7663 14.303 28.5499 13.9527 28.2001C13.6025 27.8503 13.3857 27.5175 13.2047 27.0507C13.0674 26.6987 12.905 26.1686 12.8607 25.1936C12.8122 24.1395 12.8026 23.8229 12.8026 21.1524C12.8026 18.4819 12.813 18.1662 12.8607 17.1112C12.9051 16.1363 13.0687 15.6072 13.2047 15.2542C13.3865 14.7873 13.603 14.4542 13.9527 14.1039C14.3025 13.7537 14.6353 13.5369 15.103 13.3559C15.455 13.2187 15.985 13.0563 16.96 13.0119C18.0141 12.9635 18.3307 12.9538 21 12.9538C23.6693 12.9538 23.9862 12.9643 25.0412 13.0119C26.0162 13.0563 26.5452 13.2199 26.8982 13.3559C27.3651 13.5369 27.6982 13.7542 28.0485 14.1039C28.3987 14.4537 28.6147 14.7873 28.7965 15.2542C28.9338 15.6062 29.0962 16.1363 29.1405 17.1112C29.189 18.1662 29.1986 18.4819 29.1986 21.1524C29.1986 23.8229 29.189 24.1387 29.1405 25.1936C29.0961 26.1686 28.9329 26.6985 28.7965 27.0507C28.6147 27.5175 28.3982 27.8507 28.0485 28.2001C27.6987 28.5495 27.3651 28.7663 26.8982 28.9481C26.5462 29.0854 26.0162 29.2478 25.0412 29.2921C23.9871 29.3406 23.6705 29.3503 21 29.3503C18.3295 29.3503 18.0138 29.3406 16.96 29.2921ZM16.8772 11.2129C15.8126 11.2614 15.0852 11.4302 14.4499 11.6774C13.792 11.9327 13.235 12.2751 12.6785 12.8308C12.1219 13.3865 11.7803 13.9443 11.525 14.6023C11.2778 15.2379 11.109 15.965 11.0606 17.0295C11.0113 18.0958 11 18.4367 11 21.1523C11 23.868 11.0113 24.2089 11.0606 25.2751C11.109 26.3398 11.2778 27.0667 11.525 27.7024C11.7803 28.3599 12.122 28.9184 12.6785 29.4739C13.235 30.0293 13.792 30.3713 14.4499 30.6273C15.0864 30.8745 15.8126 31.0433 16.8772 31.0918C17.944 31.1403 18.2843 31.1523 21 31.1523C23.7157 31.1523 24.0566 31.1411 25.1228 31.0918C26.1874 31.0433 26.9144 30.8745 27.5501 30.6273C28.2076 30.3713 28.765 30.0295 29.3215 29.4739C29.8781 28.9182 30.219 28.3599 30.475 27.7024C30.7222 27.0667 30.8918 26.3397 30.9394 25.2751C30.9879 24.2081 30.9992 23.868 30.9992 21.1523C30.9992 18.4367 30.9879 18.0958 30.9394 17.0295C30.891 15.9649 30.7222 15.2375 30.475 14.6023C30.219 13.9447 29.8772 13.3874 29.3215 12.8308C28.7658 12.2743 28.2076 11.9327 27.5509 11.6774C26.9144 11.4302 26.1874 11.2606 25.1236 11.2129C24.0574 11.1644 23.7165 11.1523 21.0008 11.1523C18.2851 11.1523 17.944 11.1636 16.8772 11.2129Z" fill="url(#paint1_radial_416_499)"/>
</g>
<defs>
<radialGradient id="paint0_radial_416_499" cx="0" cy="0" r="1" gradientUnits="userSpaceOnUse" gradientTransform="translate(13.6571 31.2468) scale(26.1083 26.1083)">
<stop offset="0.09" stop-color="#FA8F21"/>
<stop offset="0.78" stop-color="#D82D7E"/>
</radialGradient>
<radialGradient id="paint1_radial_416_499" cx="0" cy="0" r="1" gradientUnits="userSpaceOnUse" gradientTransform="translate(23.1291 32.1428) scale(20.577)">
<stop offset="0.64" stop-color="#8C3AAA" stop-opacity="0"/>
<stop offset="1" stop-color="#8C3AAA"/>
</radialGradient>
<clipPath id="clip0_416_499">
<rect width="20" height="20" fill="white" transform="translate(11 11.1523)"/>
</clipPath>
</defs>
</svg>
