<svg width="42" height="42" viewBox="0 0 42 42" fill="none" xmlns="http://www.w3.org/2000/svg">
<path d="M21 41.1523C32.0457 41.1523 41 32.198 41 21.1523C41 10.1066 32.0457 1.15234 21 1.15234C9.95431 1.15234 1 10.1066 1 21.1523C1 32.198 9.95431 41.1523 21 41.1523Z" fill="#FEFEFE"/>
<path d="M21.0001 40.485C31.6776 40.485 40.3334 31.8292 40.3334 21.1517C40.3334 10.4742 31.6776 1.81836 21.0001 1.81836C10.3226 1.81836 1.66675 10.4742 1.66675 21.1517C1.66675 31.8292 10.3226 40.485 21.0001 40.485Z" stroke="#BFBFBF" stroke-opacity="0.24" stroke-width="2"/>
<path d="M12.3332 29.8177H14.9999C15.0886 29.8166 15.1762 29.798 15.2577 29.763C15.3392 29.728 15.413 29.6773 15.4749 29.6138C15.5368 29.5503 15.5856 29.4752 15.6185 29.3928C15.6514 29.3104 15.6677 29.2224 15.6666 29.1337V17.1684C15.6677 17.0797 15.6514 16.9916 15.6185 16.9093C15.5856 16.8269 15.5368 16.7518 15.4749 16.6883C15.413 16.6248 15.3392 16.5741 15.2577 16.5391C15.1762 16.5041 15.0886 16.4855 14.9999 16.4844H12.3332C12.2445 16.4855 12.1569 16.5041 12.0754 16.5391C11.9939 16.5741 11.9201 16.6248 11.8582 16.6883C11.7963 16.7518 11.7475 16.8269 11.7146 16.9093C11.6818 16.9916 11.6654 17.0797 11.6666 17.1684V29.1344C11.6644 29.3134 11.7334 29.4859 11.8585 29.614C11.9835 29.7422 12.1542 29.8154 12.3332 29.8177Z" fill="#0071AE"/>
<path d="M12.3334 15.1516H15.0001C15.1839 15.1443 15.3573 15.0644 15.4823 14.9295C15.6073 14.7945 15.6736 14.6155 15.6667 14.4316V11.8743C15.6736 11.6905 15.6073 11.5114 15.4823 11.3765C15.3573 11.2415 15.1839 11.1616 15.0001 11.1543H12.3334C12.1496 11.1616 11.9762 11.2415 11.8512 11.3765C11.7262 11.5114 11.6599 11.6905 11.6667 11.8743V14.4343C11.6606 14.6177 11.7273 14.796 11.8522 14.9304C11.9771 15.0648 12.1501 15.1443 12.3334 15.1516Z" fill="#0071AE"/>
<path d="M30.6951 18.1786C30.2748 17.6405 29.7218 17.221 29.0904 16.9612C27.9451 16.4671 26.6714 16.3534 25.4567 16.6369C24.2419 16.9203 23.1502 17.5859 22.3418 18.5359C22.1024 18.8079 21.9278 18.7486 21.9278 18.3806V17.4926C21.9306 17.3187 21.8643 17.1508 21.7434 17.0258C21.6225 16.9008 21.457 16.8289 21.2831 16.8259H18.9778C18.8039 16.8289 18.6383 16.9008 18.5174 17.0258C18.3965 17.1508 18.3302 17.3187 18.3331 17.4926V29.1519C18.3302 29.3258 18.3965 29.4937 18.5174 29.6187C18.6383 29.7437 18.8039 29.8156 18.9778 29.8186H21.5591C21.733 29.8156 21.8985 29.7437 22.0194 29.6187C22.1403 29.4937 22.2066 29.3258 22.2038 29.1519V25.0972C22.1515 23.9315 22.251 22.764 22.4998 21.6239C22.6862 21.0128 23.0718 20.4817 23.5951 20.1152C24.1205 19.7379 24.7529 19.5384 25.3998 19.5459C25.8787 19.5328 26.3493 19.6729 26.7431 19.9459C27.1236 20.2233 27.406 20.6146 27.5491 21.0632C27.7683 22.1039 27.8516 23.1685 27.7971 24.2306V29.1532C27.7942 29.3271 27.8605 29.495 27.9814 29.62C28.1023 29.745 28.2679 29.8169 28.4418 29.8199H31.0231C31.197 29.8169 31.3625 29.745 31.4834 29.62C31.6043 29.495 31.6706 29.3271 31.6678 29.1532V22.5532C31.6909 21.6514 31.6194 20.7495 31.4544 19.8626C31.3212 19.2545 31.0626 18.681 30.6951 18.1786Z" fill="#0071AE"/>
</svg>
