<svg width="42" height="42" viewBox="0 0 42 42" fill="none" xmlns="http://www.w3.org/2000/svg">
<path d="M21 41.1523C32.0457 41.1523 41 32.198 41 21.1523C41 10.1066 32.0457 1.15234 21 1.15234C9.95431 1.15234 1 10.1066 1 21.1523C1 32.198 9.95431 41.1523 21 41.1523Z" fill="#FEFEFE"/>
<path d="M21.0001 40.485C31.6776 40.485 40.3334 31.8292 40.3334 21.1517C40.3334 10.4742 31.6776 1.81836 21.0001 1.81836C10.3226 1.81836 1.66675 10.4742 1.66675 21.1517C1.66675 31.8292 10.3226 40.485 21.0001 40.485Z" stroke="#BFBFBF" stroke-opacity="0.24" stroke-width="2"/>
<path d="M17.9559 29.153C25.5032 29.153 29.6312 23.5097 29.6312 18.6164C29.6312 18.4564 29.6312 18.2964 29.6192 18.1377C30.4099 17.6252 31.1031 16.9763 31.6666 16.2211C30.9114 16.5221 30.1184 16.7182 29.3099 16.8037C30.1435 16.3672 30.786 15.6377 31.1139 14.7557C30.2982 15.1905 29.4189 15.4938 28.5086 15.6544C27.8544 15.053 27.0347 14.662 26.1556 14.532C25.2766 14.4021 24.3787 14.5393 23.5786 14.9257C22.809 15.2611 22.1813 15.8555 21.8045 16.6056C21.4276 17.3557 21.3255 18.2141 21.5159 19.0317C19.9211 18.9759 18.3531 18.6056 16.9018 17.9421C15.4506 17.2785 14.1447 16.3348 13.0592 15.1651C12.8022 15.5687 12.6308 16.0208 12.5556 16.4934C12.4804 16.9659 12.5031 17.4489 12.6222 17.9124C12.7413 18.3758 12.9544 18.8099 13.2481 19.1876C13.5419 19.5654 13.9101 19.8788 14.3299 20.1084C13.6823 20.0914 13.0464 19.9321 12.4672 19.6417V19.6884C12.5035 20.5833 12.8531 21.4371 13.4548 22.1005C14.0565 22.764 14.8721 23.1951 15.7592 23.3184C15.1529 23.4682 14.5221 23.4909 13.9066 23.385C14.2112 24.1507 14.7404 24.8061 15.4246 25.2652C16.1088 25.7243 16.916 25.9655 17.7399 25.9571C16.2462 27.0005 14.4659 27.5555 12.6439 27.5457C12.3176 27.5452 11.9916 27.5274 11.6672 27.4924C13.5813 28.5891 15.7506 29.1619 17.9566 29.153" fill="#51A3E3"/>
</svg>
