<svg width="36" height="36" viewBox="0 0 36 36" fill="none" xmlns="http://www.w3.org/2000/svg">
<path d="M22.8828 16.875C22.2615 16.875 21.7578 17.3787 21.7578 18C21.7578 18.6213 22.2615 19.125 22.8828 19.125C23.5041 19.125 24.0078 18.6213 24.0078 18C24.0078 17.3787 23.5041 16.875 22.8828 16.875Z" fill="#4F4A3D"/>
<path d="M12.2852 16.875C11.6638 16.875 11.1602 17.3787 11.1602 18C11.1602 18.6213 11.6638 19.125 12.2852 19.125C12.9065 19.125 13.4102 18.6213 13.4102 18C13.4102 17.3787 12.9065 16.875 12.2852 16.875Z" fill="#4F4A3D"/>
<path d="M30.87 5.62406H14.175C14.1234 5.62584 14.0732 5.64125 14.0295 5.66871C13.9858 5.69617 13.9501 5.73472 13.9261 5.78042C13.9021 5.82613 13.8907 5.87737 13.8929 5.92894C13.8951 5.98051 13.9109 6.03058 13.9387 6.07406L14.895 7.48031C14.9774 7.6014 15.0881 7.70056 15.2175 7.76918C15.3469 7.83779 15.491 7.87379 15.6375 7.87406H30.87C31.3355 7.87406 31.7818 8.05896 32.111 8.38809C32.4401 8.71721 32.625 9.1636 32.625 9.62906V14.5341C32.6226 14.5571 32.6123 14.5786 32.5959 14.595C32.5795 14.6113 32.558 14.6216 32.535 14.6241H30.375C29.8802 14.6171 29.39 14.7191 28.939 14.9227C28.488 15.1263 28.0873 15.4266 27.7652 15.8023C27.4432 16.178 27.2077 16.6199 27.0755 17.0968C26.9433 17.5736 26.9175 18.0737 27 18.5616C27.1567 19.3683 27.594 20.0934 28.2345 20.6083C28.875 21.1231 29.6772 21.3944 30.4988 21.3741H32.535C32.558 21.3765 32.5795 21.3868 32.5959 21.4031C32.6123 21.4195 32.6226 21.441 32.625 21.4641V26.3691C32.625 26.8345 32.4401 27.2809 32.111 27.61C31.7818 27.9392 31.3355 28.1241 30.87 28.1241H29.25C29.2101 28.1254 29.1712 28.1375 29.1374 28.1588C29.1037 28.1802 29.0762 28.2102 29.0579 28.2457C29.0396 28.2812 29.031 28.321 29.0331 28.3609C29.0353 28.4008 29.048 28.4394 29.07 28.4728L30.285 30.2278C30.3138 30.2732 30.3537 30.3105 30.401 30.3361C30.4482 30.3617 30.5013 30.3747 30.555 30.3741H30.87C31.9313 30.3711 32.9482 29.9482 33.6987 29.1977C34.4491 28.4473 34.872 27.4303 34.875 26.3691V21.4641C34.875 20.8435 34.6285 20.2483 34.1896 19.8094C33.7508 19.3706 33.1556 19.1241 32.535 19.1241H30.4988C30.218 19.1353 29.9419 19.0499 29.7166 18.8819C29.4914 18.714 29.3306 18.4738 29.2613 18.2016C29.2321 18.0365 29.2402 17.867 29.2849 17.7054C29.3297 17.5438 29.41 17.3943 29.52 17.2678C29.6256 17.1443 29.7567 17.0452 29.9043 16.9772C30.0519 16.9092 30.2125 16.874 30.375 16.8741H32.535C33.1556 16.8741 33.7508 16.6275 34.1896 16.1887C34.6285 15.7499 34.875 15.1547 34.875 14.5341V9.62906C34.872 8.56778 34.4491 7.55082 33.6987 6.80037C32.9482 6.04993 31.9313 5.62703 30.87 5.62406ZM5.13 30.3741H25.0087L26.3925 32.4216C26.5596 32.6692 26.8182 32.8403 27.1115 32.8973C27.4047 32.9543 27.7086 32.8924 27.9562 32.7253C28.2039 32.5582 28.375 32.2996 28.432 32.0063C28.489 31.7131 28.4271 31.4092 28.26 31.1616L9.6075 3.57656C9.52489 3.45379 9.41887 3.34852 9.29552 3.26679C9.17217 3.18506 9.03391 3.12846 8.88865 3.10025C8.74339 3.07203 8.59399 3.07275 8.44901 3.10236C8.30403 3.13197 8.16631 3.18989 8.04375 3.27281C7.92098 3.35542 7.81572 3.46143 7.73398 3.58479C7.65225 3.70814 7.59565 3.84641 7.56744 3.99166C7.53922 4.13692 7.53994 4.28632 7.56955 4.4313C7.59916 4.57628 7.65708 4.714 7.74 4.83656L8.26875 5.62406H5.13C4.06872 5.62703 3.05176 6.04993 2.30132 6.80037C1.55088 7.55082 1.12797 8.56778 1.125 9.62906V14.5341C1.125 15.1547 1.37154 15.7499 1.81037 16.1887C2.24921 16.6275 2.84439 16.8741 3.465 16.8741H5.625C5.7875 16.874 5.94806 16.9092 6.09566 16.9772C6.24326 17.0452 6.37438 17.1443 6.48 17.2678C6.58998 17.3943 6.67028 17.5438 6.71505 17.7054C6.75982 17.867 6.76792 18.0365 6.73875 18.2016C6.66938 18.4738 6.50862 18.714 6.28335 18.8819C6.05809 19.0499 5.78199 19.1353 5.50125 19.1241H3.465C3.15771 19.1241 2.85342 19.1846 2.56952 19.3022C2.28562 19.4198 2.02766 19.5921 1.81037 19.8094C1.59308 20.0267 1.42072 20.2847 1.30312 20.5686C1.18553 20.8525 1.125 21.1568 1.125 21.4641V26.3691C1.12797 27.4303 1.55088 28.4473 2.30132 29.1977C3.05176 29.9482 4.06872 30.3711 5.13 30.3741ZM3.375 21.4641C3.37744 21.441 3.38771 21.4195 3.40409 21.4031C3.42047 21.3868 3.44197 21.3765 3.465 21.3741H5.50125C6.32278 21.3944 7.12497 21.1231 7.76546 20.6083C8.40596 20.0934 8.84334 19.3683 9 18.5616C9.08252 18.0737 9.05674 17.5736 8.9245 17.0968C8.79226 16.6199 8.55678 16.178 8.23475 15.8023C7.91272 15.4266 7.51202 15.1263 7.06102 14.9227C6.61003 14.7191 6.11978 14.6171 5.625 14.6241H3.465C3.44197 14.6216 3.42047 14.6113 3.40409 14.595C3.38771 14.5786 3.37744 14.5571 3.375 14.5341V9.62906C3.375 9.39859 3.42039 9.17038 3.50859 8.95745C3.59679 8.74452 3.72606 8.55105 3.88903 8.38809C4.05199 8.22512 4.24546 8.09585 4.45839 8.00765C4.67132 7.91945 4.89953 7.87406 5.13 7.87406H9.79875L16.4925 17.7741C16.4872 17.849 16.4872 17.9242 16.4925 17.9991C16.4886 18.2671 16.5805 18.5277 16.7517 18.7339C16.9229 18.9402 17.1621 19.0785 17.4263 19.1241L23.49 28.1241H5.13C4.66455 28.1241 4.21815 27.9392 3.88903 27.61C3.5599 27.2809 3.375 26.8345 3.375 26.3691V21.4641Z" fill="#4F4A3D"/>
</svg>
