<svg width="16" height="17" viewBox="0 0 16 17" fill="none" xmlns="http://www.w3.org/2000/svg">
<g clip-path="url(#clip0_437_2834)">
<path d="M16.0009 8.16668C16.001 7.70693 15.8649 7.25745 15.61 6.87485C15.355 6.49226 14.9926 6.19367 14.5683 6.01668C14.3009 4.4699 13.4949 3.06759 12.2929 2.05795C11.091 1.0483 9.57064 0.496434 8.00092 0.500017C6.43121 0.496434 4.91083 1.0483 3.7089 2.05795C2.50696 3.06759 1.70098 4.4699 1.43359 6.01668C0.950298 6.22073 0.549867 6.58168 0.296934 7.04128C0.0440017 7.50088 -0.0466737 8.0323 0.0395451 8.54977C0.125764 9.06724 0.383846 9.54055 0.772131 9.89331C1.16042 10.2461 1.65625 10.4577 2.17959 10.494C2.43699 11.0464 2.76678 11.562 3.16026 12.0274C2.81538 12.1871 2.52316 12.4418 2.31784 12.7617C2.11252 13.0815 2.00259 13.4533 2.00092 13.8334V16.5H3.33426V13.8334C3.33426 13.6565 3.40449 13.487 3.52952 13.3619C3.65454 13.2369 3.82411 13.1667 4.00092 13.1667H4.35292C5.38931 14 6.67142 14.4686 8.00092 14.5C9.33107 14.4688 10.6139 14.0002 11.6509 13.1667H12.0009C12.1777 13.1667 12.3473 13.2369 12.4723 13.3619C12.5974 13.487 12.6676 13.6565 12.6676 13.8334V16.5H14.0009V13.8334C13.9996 13.4531 13.8899 13.0811 13.6846 12.761C13.4794 12.4409 13.1872 12.186 12.8423 12.026C13.2353 11.5605 13.5649 11.0449 13.8223 10.4927C14.4124 10.4527 14.9653 10.1904 15.3697 9.75874C15.774 9.32707 15.9996 8.75814 16.0009 8.16668ZM13.4996 9.14868L12.9429 9.05002L12.7549 9.58335C12.1443 11.3147 10.0876 13.1667 8.00092 13.1667C5.91426 13.1667 3.85826 11.3134 3.24692 9.58268L3.06026 9.05402L2.50692 9.14735C2.45 9.15858 2.39225 9.16505 2.33426 9.16669C2.08734 9.16295 1.85054 9.06799 1.66946 8.90009C1.48838 8.7322 1.37582 8.50323 1.35347 8.2573C1.33112 8.01138 1.40056 7.76587 1.54841 7.56808C1.69626 7.37029 1.91206 7.2342 2.15426 7.18602L2.64626 7.10002L2.69826 6.60402C2.78759 5.74952 3.08299 4.92947 3.55908 4.21428C4.03518 3.4991 4.67774 2.91015 5.43159 2.49802C5.37069 2.71583 5.33798 2.94055 5.33426 3.16668C5.33426 3.87393 5.61521 4.55221 6.1153 5.0523C6.6154 5.5524 7.29368 5.83335 8.00092 5.83335C8.70817 5.83335 9.38645 5.5524 9.88654 5.0523C10.3866 4.55221 10.6676 3.87393 10.6676 3.16668H9.33426C9.33426 3.43039 9.25606 3.68818 9.10955 3.90744C8.96304 4.12671 8.7548 4.29761 8.51117 4.39852C8.26753 4.49944 7.99944 4.52585 7.7408 4.4744C7.48216 4.42295 7.24458 4.29596 7.05811 4.10949C6.87164 3.92302 6.74466 3.68545 6.69321 3.4268C6.64176 3.16816 6.66817 2.90007 6.76908 2.65644C6.87 2.4128 7.0409 2.20457 7.26016 2.05806C7.47943 1.91155 7.73722 1.83335 8.00092 1.83335C9.31814 1.8302 10.5897 2.31595 11.5693 3.19654C12.5489 4.07713 13.1669 5.28991 13.3036 6.60002L13.3556 7.09602L13.8476 7.18468C14.0912 7.23149 14.3087 7.36717 14.4579 7.56536C14.6071 7.76356 14.6772 8.01012 14.6548 8.25717C14.6324 8.50421 14.5189 8.7341 14.3365 8.90218C14.154 9.07026 13.9156 9.16453 13.6676 9.16669C13.6112 9.16534 13.555 9.15954 13.4996 9.14935V9.14868Z" fill="#4F4A3D"/>
<path d="M6.33203 9.16797C6.88432 9.16797 7.33203 8.72025 7.33203 8.16797C7.33203 7.61568 6.88432 7.16797 6.33203 7.16797C5.77975 7.16797 5.33203 7.61568 5.33203 8.16797C5.33203 8.72025 5.77975 9.16797 6.33203 9.16797Z" fill="#4F4A3D"/>
<path d="M9.66797 9.16797C10.2203 9.16797 10.668 8.72025 10.668 8.16797C10.668 7.61568 10.2203 7.16797 9.66797 7.16797C9.11568 7.16797 8.66797 7.61568 8.66797 8.16797C8.66797 8.72025 9.11568 9.16797 9.66797 9.16797Z" fill="#4F4A3D"/>
</g>
<defs>
<clipPath id="clip0_437_2834">
<rect width="16" height="16" fill="white" transform="translate(0 0.5)"/>
</clipPath>
</defs>
</svg>
