<svg width="36" height="36" viewBox="0 0 36 36" fill="none" xmlns="http://www.w3.org/2000/svg">
<path d="M30.375 7.875L22.5 7.875C22.5 6.9799 22.1444 6.12145 21.5115 5.48852C20.8786 4.85558 20.0201 4.5 19.125 4.5L16.875 4.5C15.9799 4.5 15.1214 4.85558 14.4885 5.48852C13.8556 6.12145 13.5 6.9799 13.5 7.875L5.625 7.875C4.72989 7.875 3.87145 8.23058 3.23851 8.86352C2.60558 9.49645 2.25 10.3549 2.25 11.25L2.25 27C2.25 27.8951 2.60558 28.7536 3.23851 29.3865C3.87145 30.0194 4.72989 30.375 5.625 30.375L30.375 30.375C31.2701 30.375 32.1285 30.0194 32.7615 29.3865C33.3944 28.7536 33.75 27.8951 33.75 27L33.75 11.25C33.75 10.3549 33.3944 9.49646 32.7615 8.86352C32.1286 8.23058 31.2701 7.87501 30.375 7.875ZM16.875 6.75L19.125 6.75C19.4234 6.75 19.7095 6.86853 19.9205 7.07951C20.1315 7.29049 20.25 7.57663 20.25 7.875L15.75 7.875C15.75 7.57663 15.8685 7.29049 16.0795 7.07951C16.2905 6.86853 16.5766 6.75 16.875 6.75ZM27 10.125L27 28.125L9 28.125L9 10.125L27 10.125ZM4.5 27L4.5 11.25C4.5 10.9516 4.61853 10.6655 4.8295 10.4545C5.04048 10.2435 5.32663 10.125 5.625 10.125L6.75 10.125L6.75 28.125L5.625 28.125C5.32663 28.125 5.04048 28.0065 4.8295 27.7955C4.61852 27.5845 4.5 27.2984 4.5 27ZM31.5 27C31.5 27.2984 31.3815 27.5845 31.1705 27.7955C30.9595 28.0065 30.6734 28.125 30.375 28.125L29.25 28.125L29.25 10.125L30.375 10.125C30.6734 10.125 30.9595 10.2435 31.1705 10.4545C31.3815 10.6655 31.5 10.9516 31.5 11.25L31.5 27Z" fill="#4F4A3D"/>
<path d="M12.375 18.5625L15.75 21.9375L22.5 15.1875" stroke="#4F4A3D" stroke-width="2.5" stroke-linecap="round"/>
</svg>
