<svg width="16" height="17" viewBox="0 0 16 17" fill="none" xmlns="http://www.w3.org/2000/svg">
<path d="M14.6659 3.88818C14.6665 3.48166 14.5463 3.08413 14.3207 2.74594C14.0952 2.40775 13.7743 2.14413 13.3987 1.98849C13.0232 1.83285 12.6099 1.79218 12.2112 1.87164C11.8125 1.9511 11.4464 2.14712 11.1592 2.43485L9.28589 4.30818L4.95923 2.86818C4.84403 2.83198 4.72117 2.82774 4.60375 2.85592C4.48633 2.8841 4.37877 2.94364 4.29256 3.02818L2.70589 4.60152C2.63071 4.67757 2.57493 4.77059 2.54326 4.87273C2.51158 4.97487 2.50494 5.08313 2.5239 5.18838C2.54286 5.29362 2.58685 5.39276 2.65218 5.47743C2.7175 5.5621 2.80223 5.62981 2.89923 5.67485L6.35256 7.24152L4.61923 8.97485L3.47923 8.40152C3.35614 8.3349 3.21521 8.30871 3.07641 8.32666C2.93762 8.34461 2.80798 8.40578 2.70589 8.50152L1.52589 9.70818C1.40173 9.83309 1.33203 10.0021 1.33203 10.1782C1.33203 10.3543 1.40173 10.5233 1.52589 10.6482L5.85256 14.9748C5.97747 15.099 6.14644 15.1687 6.32256 15.1687C6.49868 15.1687 6.66765 15.099 6.79256 14.9748L7.99923 13.7949C8.09928 13.6958 8.16543 13.5677 8.18818 13.4288C8.21093 13.2898 8.18913 13.1473 8.12589 13.0215L7.55256 11.8815L9.28589 10.1482L10.8526 13.6015C10.8976 13.6985 10.9653 13.7832 11.05 13.8486C11.1346 13.9139 11.2338 13.9579 11.339 13.9768C11.4443 13.9958 11.5525 13.9892 11.6547 13.9575C11.7568 13.9258 11.8498 13.87 11.9259 13.7949L13.4992 12.2215C13.5838 12.1353 13.6433 12.0277 13.6715 11.9103C13.6997 11.7929 13.6954 11.67 13.6592 11.5549L12.2192 7.22818L14.0659 5.34152C14.2574 5.15123 14.409 4.92472 14.5121 4.67519C14.6151 4.42567 14.6674 4.15813 14.6659 3.88818ZM13.1192 4.40152L10.9592 6.56152C10.8747 6.64773 10.8151 6.75529 10.787 6.87271C10.7588 6.99012 10.763 7.11299 10.7992 7.22818L12.2392 11.5482L11.6392 12.1482L10.0726 8.70152C10.0281 8.60363 9.96061 8.51795 9.87587 8.45178C9.79113 8.38561 9.69164 8.34092 9.58589 8.32152C9.47927 8.30206 9.36951 8.30889 9.26612 8.34141C9.16273 8.37394 9.06883 8.43118 8.99256 8.50818L6.24589 11.2815C6.14728 11.38 6.08203 11.507 6.05931 11.6445C6.03659 11.782 6.05754 11.9232 6.11923 12.0482L6.66589 13.1682L6.29256 13.5415L2.93923 10.1815L3.33256 9.83485L4.47256 10.4082C4.59755 10.4699 4.73874 10.4908 4.87626 10.4681C5.01378 10.4454 5.14072 10.3801 5.23923 10.2815L7.99923 7.50818C8.07583 7.43218 8.13284 7.33872 8.16535 7.23582C8.19787 7.13293 8.20492 7.02368 8.18591 6.91746C8.16689 6.81124 8.12238 6.71122 8.05619 6.626C7.98999 6.54078 7.9041 6.47289 7.80589 6.42818L4.33256 4.86152L4.93256 4.26152L9.25256 5.70152C9.36775 5.73772 9.49062 5.74196 9.60804 5.71378C9.72545 5.6856 9.83301 5.62606 9.91923 5.54152L12.0792 3.38152C12.1457 3.31359 12.225 3.25961 12.3126 3.22276C12.4002 3.18591 12.4942 3.16693 12.5892 3.16693C12.6842 3.16693 12.7783 3.18591 12.8659 3.22276C12.9535 3.25961 13.0328 3.31359 13.0992 3.38152C13.1688 3.44595 13.2238 3.52447 13.2606 3.61184C13.2973 3.69921 13.3151 3.79342 13.3126 3.88818C13.3162 3.98231 13.3009 4.07622 13.2677 4.16437C13.2345 4.25253 13.184 4.33316 13.1192 4.40152Z" fill="#4F4A3D"/>
</svg>
