<svg width="56" height="56" viewBox="0 0 56 56" fill="none" xmlns="http://www.w3.org/2000/svg">
<rect x="1.5" y="1.5" width="53" height="53" rx="26.5" fill="white"/>
<rect x="1.5" y="1.5" width="53" height="53" rx="26.5" stroke="#EFEFEF" stroke-width="3"/>
<g clip-path="url(#clip0_437_2876)">
<path fill-rule="evenodd" clip-rule="evenodd" d="M22.0003 40H30.5C31.0521 40 31.5001 40.4479 31.5001 40.9999C31.5001 41.5519 31.0521 41.9998 30.5 41.9998H21.0001C20.448 41.9998 20 41.5519 20 40.9999V17.9999C20 17.4479 20.448 17 21.0001 17H35.0001C35.5523 17 36.0003 17.4479 36.0003 17.9999V40.9999C36.0003 41.5519 35.5523 41.9998 35.0001 41.9998H34.5001C33.9484 41.9998 33.4999 41.5519 33.4999 40.9999C33.4999 40.6302 33.7012 40.3071 34 40.134V18.9998H22.0003V40Z" fill="#4F4A3D"/>
<path fill-rule="evenodd" clip-rule="evenodd" d="M37 15C37 14.4475 36.5525 14 36 14H20C19.4476 14 19 14.4475 19 15V18C19 18.5525 19.4476 19 20 19H36C36.5525 19 37 18.5525 37 18V15ZM21 16V17H35V16H21Z" fill="#4F4A3D"/>
<path fill-rule="evenodd" clip-rule="evenodd" d="M31 35.0002C31 34.4482 30.5525 34 30 34H26C25.4475 34 25 34.4482 25 35.0002V41.0002C25 41.5522 25.4475 42.0004 26 42.0004H30C30.5525 42.0004 31 41.5522 31 41.0002V35.0002ZM27 36.0004V40H29V36.0004H27Z" fill="#4F4A3D"/>
<path fill-rule="evenodd" clip-rule="evenodd" d="M31 29.5C31 29.224 30.776 29 30.5 29H29.5C29.224 29 29 29.224 29 29.5V30.5C29 30.776 29.224 31 29.5 31H30.5C30.776 31 31 30.776 31 30.5V29.5Z" fill="#4F4A3D"/>
<path fill-rule="evenodd" clip-rule="evenodd" d="M31 25.5C31 25.224 30.776 25 30.5 25H29.5C29.224 25 29 25.224 29 25.5V26.5C29 26.776 29.224 27 29.5 27H30.5C30.776 27 31 26.776 31 26.5V25.5Z" fill="#4F4A3D"/>
<path fill-rule="evenodd" clip-rule="evenodd" d="M31 21.5C31 21.224 30.776 21 30.5 21H29.5C29.224 21 29 21.224 29 21.5V22.5C29 22.776 29.224 23 29.5 23H30.5C30.776 23 31 22.776 31 22.5V21.5Z" fill="#4F4A3D"/>
<path fill-rule="evenodd" clip-rule="evenodd" d="M26.5 29.5C26.5 29.224 26.276 29 26 29H25C24.724 29 24.5 29.224 24.5 29.5V30.5C24.5 30.776 24.724 31 25 31H26C26.276 31 26.5 30.776 26.5 30.5V29.5Z" fill="#4F4A3D"/>
<path fill-rule="evenodd" clip-rule="evenodd" d="M26.5 25.5C26.5 25.224 26.276 25 26 25H25C24.724 25 24.5 25.224 24.5 25.5V26.5C24.5 26.776 24.724 27 25 27H26C26.276 27 26.5 26.776 26.5 26.5V25.5Z" fill="#4F4A3D"/>
<path fill-rule="evenodd" clip-rule="evenodd" d="M26.5 21.5C26.5 21.224 26.276 21 26 21H25C24.724 21 24.5 21.224 24.5 21.5V22.5C24.5 22.776 24.724 23 25 23H26C26.276 23 26.5 22.776 26.5 22.5V21.5Z" fill="#4F4A3D"/>
<path fill-rule="evenodd" clip-rule="evenodd" d="M22 33C22 32.4478 21.5525 32 21 32H17C16.4476 32 16 32.4478 16 33V40.9999C16 41.5521 16.4476 41.9999 17 41.9999H21C21.5525 41.9999 22 41.5521 22 40.9999V33ZM18 34V39.9999H20V34H18Z" fill="#4F4A3D"/>
<path fill-rule="evenodd" clip-rule="evenodd" d="M40 33C40 32.4478 39.5525 32 39 32H35C34.4476 32 34 32.4478 34 33V40.9999C34 41.5521 34.4476 41.9999 35 41.9999H39C39.5525 41.9999 40 41.5521 40 40.9999V33ZM36 34V39.9999H38V34H36Z" fill="#4F4A3D"/>
<path fill-rule="evenodd" clip-rule="evenodd" d="M35 34H40C40.5521 34 41 33.552 41 33C41 32.448 40.5521 32 40 32H35C34.4479 32 34 32.448 34 33C34 33.552 34.4479 34 35 34Z" fill="#4F4A3D"/>
<path fill-rule="evenodd" clip-rule="evenodd" d="M16 34H21C21.5521 34 22 33.552 22 33C22 32.448 21.5521 32 21 32H16C15.4479 32 15 32.448 15 33C15 33.552 15.4479 34 16 34Z" fill="#4F4A3D"/>
<path fill-rule="evenodd" clip-rule="evenodd" d="M15 42H17C17.552 42 18 41.552 18 41C18 40.448 17.552 40 17 40H15C14.448 40 14 40.448 14 41C14 41.552 14.448 42 15 42Z" fill="#4F4A3D"/>
<path fill-rule="evenodd" clip-rule="evenodd" d="M39 42H41C41.552 42 42 41.552 42 41C42 40.448 41.552 40 41 40H39C38.448 40 38 40.448 38 41C38 41.552 38.448 42 39 42Z" fill="#4F4A3D"/>
</g>
<defs>
<clipPath id="clip0_437_2876">
<rect width="32" height="32" fill="white" transform="translate(12 12)"/>
</clipPath>
</defs>
</svg>
