<svg width="36" height="36" viewBox="0 0 36 36" fill="none" xmlns="http://www.w3.org/2000/svg">
<path d="M3.92777 19.7391C3.26295 19.7391 2.88822 20.5029 3.2951 21.0287L10.9082 30.8662C11.1787 31.2157 11.6813 31.2797 12.0307 31.0092L12.9063 30.3312C13.2557 30.0607 13.3196 29.5583 13.0492 29.2089L8.06584 22.7709C7.9641 22.6394 8.05779 22.4484 8.224 22.4484H31.4934C31.9352 22.4484 32.2934 22.0903 32.2934 21.6484V20.5391C32.2934 20.0972 31.9352 19.7391 31.4934 19.7391H3.92777ZM25.0941 5.16894C24.8237 4.81947 24.3211 4.75546 23.9717 5.026L23.096 5.70399C22.7467 5.97446 22.6827 6.47688 22.9531 6.82623L27.9365 13.2643C28.0382 13.3957 27.9446 13.5867 27.7783 13.5867H4.50898C4.06715 13.5867 3.70898 13.9449 3.70898 14.3867V15.4961C3.70898 15.9379 4.06715 16.2961 4.50898 16.2961H32.0746C32.7394 16.2961 33.1141 15.5322 32.7072 15.0065L25.0941 5.16894Z" fill="#4F4A3D" stroke="#4F4A3D" stroke-width="0.6"/>
</svg>
