<svg width="56" height="56" viewBox="0 0 56 56" fill="none" xmlns="http://www.w3.org/2000/svg">
<rect x="1.5" y="1.5" width="53" height="53" rx="26.5" fill="white"/>
<rect x="1.5" y="1.5" width="53" height="53" rx="26.5" stroke="#EFEFEF" stroke-width="3"/>
<path d="M41.3318 18.7725C41.3329 17.9594 41.0927 17.1643 40.6415 16.488C40.1903 15.8116 39.5485 15.2844 38.7974 14.9731C38.0464 14.6618 37.2198 14.5805 36.4224 14.7394C35.625 14.8983 34.8928 15.2903 34.3185 15.8658L30.5718 19.6125L21.9185 16.7325C21.6881 16.66 21.4423 16.6516 21.2075 16.7079C20.9727 16.7643 20.7575 16.8834 20.5851 17.0525L17.4118 20.1991C17.2614 20.3512 17.1499 20.5373 17.0865 20.7416C17.0232 20.9458 17.0099 21.1624 17.0478 21.3728C17.0857 21.5833 17.1737 21.7816 17.3044 21.951C17.435 22.1203 17.6045 22.2557 17.7985 22.3458L24.7051 25.4791L21.2385 28.9458L18.9585 27.7991C18.7123 27.6659 18.4304 27.6135 18.1528 27.6494C17.8752 27.6853 17.616 27.8077 17.4118 27.9991L15.0518 30.4125C14.8035 30.6623 14.6641 31.0002 14.6641 31.3525C14.6641 31.7047 14.8035 32.0426 15.0518 32.2925L23.7051 40.9458C23.9549 41.1941 24.2929 41.3335 24.6451 41.3335C24.9974 41.3335 25.3353 41.1941 25.5851 40.9458L27.9985 38.5858C28.1986 38.3878 28.3309 38.1315 28.3764 37.8536C28.4219 37.5758 28.3783 37.2907 28.2518 37.0391L27.1051 34.7591L30.5718 31.2925L33.7051 38.1991C33.7952 38.3931 33.9306 38.5626 34.1 38.6932C34.2693 38.8239 34.4676 38.9119 34.6781 38.9498C34.8886 38.9877 35.1051 38.9744 35.3094 38.9111C35.5136 38.8477 35.6997 38.7362 35.8518 38.5858L38.9985 35.4391C39.1675 35.2667 39.2866 35.0516 39.343 34.8167C39.3993 34.5819 39.3909 34.3362 39.3185 34.1058L36.4385 25.4525L40.1318 21.6791C40.5147 21.2985 40.8181 20.8455 41.0241 20.3465C41.2301 19.8474 41.3347 19.3124 41.3318 18.7725ZM38.2385 19.7991L33.9185 24.1191C33.7494 24.2916 33.6303 24.5067 33.5739 24.7415C33.5176 24.9763 33.526 25.2221 33.5985 25.4525L36.4785 34.0925L35.2785 35.2925L32.1451 28.3991C32.0562 28.2034 31.9212 28.032 31.7517 27.8997C31.5823 27.7673 31.3833 27.6779 31.1718 27.6391C30.9585 27.6002 30.739 27.6139 30.5322 27.6789C30.3255 27.744 30.1377 27.8585 29.9851 28.0125L24.4918 33.5591C24.2946 33.7561 24.1641 34.01 24.1186 34.2851C24.0732 34.5601 24.1151 34.8425 24.2385 35.0925L25.3318 37.3325L24.5851 38.0791L17.8785 31.3591L18.6651 30.6658L20.9451 31.8125C21.1951 31.9358 21.4775 31.9777 21.7525 31.9323C22.0276 31.8869 22.2814 31.7563 22.4785 31.5591L27.9985 26.0125C28.1517 25.8605 28.2657 25.6735 28.3307 25.4677C28.3957 25.262 28.4098 25.0435 28.3718 24.831C28.3338 24.6186 28.2448 24.4185 28.1124 24.2481C27.98 24.0776 27.8082 23.9419 27.6118 23.8525L20.6651 20.7191L21.8651 19.5191L30.5051 22.3991C30.7355 22.4715 30.9812 22.48 31.2161 22.4237C31.4509 22.3673 31.666 22.2482 31.8385 22.0791L36.1585 17.7591C36.2913 17.6233 36.45 17.5153 36.6251 17.4416C36.8003 17.3679 36.9884 17.3299 37.1785 17.3299C37.3685 17.3299 37.5566 17.3679 37.7318 17.4416C37.9069 17.5153 38.0656 17.6233 38.1985 17.7591C38.3375 17.888 38.4475 18.045 38.5211 18.2198C38.5947 18.3945 38.6301 18.5829 38.6251 18.7725C38.6324 18.9607 38.6019 19.1485 38.5355 19.3248C38.4691 19.5012 38.3681 19.6624 38.2385 19.7991Z" fill="#4F4A3D"/>
</svg>
