<svg width="24" height="25" viewBox="0 0 24 25" fill="none" xmlns="http://www.w3.org/2000/svg">
<path d="M15.7865 3.85022L15.9702 4.08743L15.7865 3.85022L15.4663 4.09813C15.117 4.3686 15.053 4.87102 15.3235 5.22037L18.3357 9.11196C18.4375 9.24339 18.3438 9.43437 18.1776 9.43437H3.17109C2.72927 9.43437 2.37109 9.79255 2.37109 10.2344V10.6406C2.37109 11.0825 2.72927 11.4406 3.17109 11.4406H21.0418C21.7066 11.4406 22.0813 10.6768 21.6744 10.151L16.909 3.99316C16.6385 3.64368 16.1359 3.57968 15.7865 3.85022ZM7.08948 20.9834C7.35993 21.3329 7.86251 21.3969 8.21192 21.1263L8.53212 20.8784C8.88144 20.608 8.94539 20.1055 8.67498 19.7562L5.66272 15.8646C5.56098 15.7332 5.65466 15.5422 5.82087 15.5422H20.8273C21.2692 15.5422 21.6273 15.184 21.6273 14.7422V14.3359C21.6273 13.8941 21.2692 13.5359 20.8273 13.5359H2.95668C2.29186 13.5359 1.91712 14.2998 2.32401 14.8256L7.08948 20.9834Z" fill="#4F4A3D" stroke="#4F4A3D" stroke-width="0.6"/>
</svg>
