<svg width="36" height="36" viewBox="0 0 36 36" fill="none" xmlns="http://www.w3.org/2000/svg">
<path d="M3.375 7.875L3.375 28.125C3.375 29.3185 3.84911 30.4631 4.69302 31.307C5.53693 32.1509 6.68153 32.625 7.875 32.625L28.125 32.625C29.3185 32.625 30.4631 32.1509 31.307 31.307C32.1509 30.4631 32.625 29.3185 32.625 28.125L32.625 7.875C32.625 6.68153 32.1509 5.53694 31.307 4.69302C30.4631 3.84911 29.3185 3.375 28.125 3.375L7.875 3.375C6.68153 3.375 5.53693 3.84911 4.69302 4.69302C3.84911 5.53693 3.375 6.68153 3.375 7.875ZM28.125 5.625C28.7217 5.625 29.294 5.86205 29.716 6.28401C30.1379 6.70597 30.375 7.27826 30.375 7.875L30.375 28.125C30.375 28.7217 30.1379 29.294 29.716 29.716C29.294 30.1379 28.7217 30.375 28.125 30.375L7.875 30.375C7.27826 30.375 6.70597 30.1379 6.28401 29.716C5.86205 29.294 5.625 28.7217 5.625 28.125L5.625 7.875C5.625 7.27826 5.86205 6.70597 6.28401 6.28401C6.70597 5.86205 7.27826 5.625 7.875 5.625L28.125 5.625Z" fill="#FFC10E"/>
<path d="M19.2505 11.97L21.883 14.625L11.3867 14.625C10.4916 14.625 9.63317 14.9805 9.00023 15.6135C8.3673 16.2464 8.01172 17.1048 8.01172 18C8.01172 18.8951 8.3673 19.7535 9.00023 20.3864C9.63317 21.0194 10.4916 21.375 11.3867 21.375L21.883 21.375L19.2392 24.03C19.0549 24.2452 18.9586 24.522 18.9695 24.8051C18.9805 25.0883 19.0979 25.3569 19.2982 25.5572C19.4986 25.7576 19.7671 25.8749 20.0503 25.8859C20.3334 25.8968 20.6103 25.8005 20.8255 25.6162L25.3255 21.1162L25.4267 21.015L27.6767 18.8212C27.7822 18.7166 27.8659 18.5922 27.923 18.4551C27.9801 18.318 28.0095 18.171 28.0095 18.0225C28.0095 17.8739 27.9801 17.7269 27.923 17.5898C27.8659 17.4527 27.7822 17.3283 27.6767 17.2237L20.848 10.4062C20.6336 10.232 20.3626 10.1427 20.0866 10.1555C19.8106 10.1683 19.549 10.2821 19.3516 10.4754C19.1541 10.6686 19.0347 10.9277 19.0161 11.2034C18.9974 11.479 19.0809 11.7519 19.2505 11.97ZM25.2805 18L24.1555 19.125L11.398 19.125C11.0996 19.125 10.8135 19.0064 10.6025 18.7954C10.3915 18.5845 10.273 18.2983 10.273 18C10.273 17.7016 10.3915 17.4154 10.6025 17.2045C10.8135 16.9935 11.0996 16.875 11.398 16.875L24.133 16.875L25.2805 18Z" fill="#FFC10E"/>
</svg>
