<svg width="25" height="24" viewBox="0 0 25 24" fill="none" xmlns="http://www.w3.org/2000/svg">
<path fill-rule="evenodd" clip-rule="evenodd" d="M17.9798 14.3929H20.918C21.3322 14.3929 21.668 14.7286 21.668 15.1429C21.668 15.5571 21.3322 15.8929 20.918 15.8929H3.91797C3.50376 15.8929 3.16797 15.5571 3.16797 15.1429C3.16797 14.7286 3.50376 14.3929 3.91797 14.3929H6.85613C7.20504 11.523 9.52902 9.25 12.418 9.25C15.307 9.25 17.6309 11.523 17.9798 14.3929ZM16.466 14.3929C16.1309 12.2963 14.4149 10.75 12.418 10.75C10.4211 10.75 8.70504 12.2963 8.36997 14.3929H16.466ZM7.56083 19.75C7.14661 19.75 6.81083 19.4142 6.81083 19C6.81083 18.5858 7.14661 18.25 7.56083 18.25H17.2751C17.6894 18.25 18.0251 18.5858 18.0251 19C18.0251 19.4142 17.6894 19.75 17.2751 19.75H7.56083Z" fill="black"/>
<path fill-rule="evenodd" clip-rule="evenodd" d="M12.418 4.25C12.8322 4.25 13.168 4.58579 13.168 5V6C13.168 6.41421 12.8322 6.75 12.418 6.75C12.0038 6.75 11.668 6.41421 11.668 6V5C11.668 4.58579 12.0038 4.25 12.418 4.25ZM7.38764 6.53184C7.68054 6.23895 8.15541 6.23896 8.4483 6.53185L9.38611 7.46967C9.679 7.76257 9.679 8.23744 9.3861 8.53033C9.09321 8.82322 8.61833 8.82322 8.32544 8.53033L7.38764 7.5925C7.09475 7.29961 7.09475 6.82474 7.38764 6.53184ZM17.4483 6.53186C17.7412 6.82476 17.7412 7.29963 17.4483 7.59253L16.5105 8.53033C16.2176 8.82322 15.7427 8.82322 15.4498 8.53033C15.157 8.23744 15.157 7.76256 15.4498 7.46967L16.3877 6.53186C16.6805 6.23897 17.1554 6.23897 17.4483 6.53186Z" fill="black"/>
</svg>
