<svg width="24" height="24" viewBox="0 0 24 24" fill="none" xmlns="http://www.w3.org/2000/svg">
<path d="M16.5537 6.43451C16.7007 6.35954 16.8423 6.27433 16.9774 6.17951C18.0724 5.41076 18.4099 3.99701 17.7274 3.02951C17.0449 2.06201 15.6049 1.90451 14.5099 2.68076C13.4149 3.45701 12.8524 4.82951 12.2412 6.43076L16.5537 6.43451ZM3.26367 11.422H20.7424V20.3095C20.7424 20.7073 20.5844 21.0889 20.3031 21.3702C20.0218 21.6515 19.6402 21.8095 19.2424 21.8095H4.76367C4.36585 21.8095 3.98432 21.6515 3.70301 21.3702C3.42171 21.0889 3.26367 20.7073 3.26367 20.3095V11.422Z" stroke="#222222" stroke-width="1.14844" stroke-linecap="round" stroke-linejoin="round"/>
<path d="M14.1932 11.4219H9.80566V21.8094H14.1932V11.4219Z" stroke="#222222" stroke-width="1.14844" stroke-linecap="round" stroke-linejoin="round"/>
<path d="M7.44852 6.43451C7.30222 6.36036 7.16181 6.27511 7.02852 6.17951C5.93352 5.41076 5.59227 3.99701 6.27852 3.02951C6.96477 2.06201 8.40102 1.90451 9.49977 2.68076C10.5985 3.45701 11.1535 4.82951 11.7685 6.43076L7.44852 6.43451Z" stroke="#222222" stroke-width="1.14844" stroke-linecap="round" stroke-linejoin="round"/>
<path d="M20.4375 6.43359H3.5625C2.94118 6.43359 2.4375 6.93727 2.4375 7.55859V10.2961C2.4375 10.9174 2.94118 11.4211 3.5625 11.4211H20.4375C21.0588 11.4211 21.5625 10.9174 21.5625 10.2961V7.55859C21.5625 6.93727 21.0588 6.43359 20.4375 6.43359Z" stroke="#222222" stroke-width="1.14844" stroke-linecap="round" stroke-linejoin="round"/>
<path d="M14.5964 6.43359H9.41016V11.4211H14.5964V6.43359Z" stroke="#222222" stroke-width="1.14844" stroke-linecap="round" stroke-linejoin="round"/>
</svg>
