<svg width="49" height="48" viewBox="0 0 49 48" fill="none" xmlns="http://www.w3.org/2000/svg">
<rect x="0.582031" width="48" height="48" rx="20" fill="#EFEFEF"/>
<g clip-path="url(#clip0_420_1235)">
<path d="M36.5815 23.5C36.5815 22.8104 36.3775 22.1362 35.9951 21.5623C35.6126 20.9884 35.069 20.5405 34.4325 20.275C34.0314 17.9549 32.8224 15.8514 31.0195 14.3369C29.2166 12.8225 26.936 11.9947 24.5815 12C22.2269 11.9947 19.9463 12.8225 18.1434 14.3369C16.3405 15.8514 15.1315 17.9549 14.7305 20.275C14.0055 20.5811 13.4049 21.1225 13.0255 21.8119C12.6461 22.5013 12.5101 23.2985 12.6394 24.0747C12.7687 24.8509 13.1558 25.5608 13.7383 26.09C14.3207 26.6191 15.0645 26.9365 15.8495 26.991C16.2356 27.8196 16.7302 28.593 17.3205 29.291C16.8031 29.5307 16.3648 29.9127 16.0568 30.3925C15.7489 30.8723 15.584 31.4299 15.5815 32V36H17.5815V32C17.5815 31.7348 17.6868 31.4805 17.8744 31.2929C18.0619 31.1054 18.3162 31 18.5815 31H19.1095C20.664 32.25 22.5872 32.953 24.5815 33C26.5767 32.9532 28.5009 32.2503 30.0565 31H30.5815C30.8467 31 31.101 31.1054 31.2886 31.2929C31.4761 31.4805 31.5815 31.7348 31.5815 32V36H33.5815V32C33.5794 31.4297 33.4149 30.8717 33.107 30.3916C32.7992 29.9114 32.3609 29.529 31.8435 29.289C32.4331 28.5908 32.9274 27.8174 33.3135 26.989C34.1986 26.929 35.0281 26.5356 35.6346 25.8881C36.2411 25.2406 36.5794 24.3872 36.5815 23.5ZM32.8295 24.973L31.9945 24.825L31.7125 25.625C30.7965 28.222 27.7115 31 24.5815 31C21.4515 31 18.3675 28.22 17.4505 25.624L17.1705 24.831L16.3405 24.971C16.2551 24.9879 16.1685 24.9976 16.0815 25C15.7111 24.9944 15.3559 24.852 15.0843 24.6001C14.8126 24.3483 14.6438 24.0049 14.6103 23.636C14.5768 23.2671 14.6809 22.8988 14.9027 22.6021C15.1245 22.3054 15.4482 22.1013 15.8115 22.029L16.5495 21.9L16.6275 21.156C16.7615 19.8743 17.2046 18.6442 17.9187 17.5714C18.6328 16.4987 19.5967 15.6152 20.7275 14.997C20.6361 15.3237 20.587 15.6608 20.5815 16C20.5815 17.0609 21.0029 18.0783 21.753 18.8285C22.5032 19.5786 23.5206 20 24.5815 20C25.6423 20 26.6597 19.5786 27.4099 18.8285C28.16 18.0783 28.5815 17.0609 28.5815 16H26.5815C26.5815 16.3956 26.4642 16.7823 26.2444 17.1112C26.0246 17.4401 25.7123 17.6964 25.3468 17.8478C24.9814 17.9992 24.5792 18.0388 24.1913 17.9616C23.8033 17.8844 23.447 17.6939 23.1672 17.4142C22.8875 17.1345 22.6971 16.7782 22.6199 16.3902C22.5427 16.0022 22.5823 15.6001 22.7337 15.2347C22.8851 14.8692 23.1414 14.5568 23.4703 14.3371C23.7992 14.1173 24.1859 14 24.5815 14C26.5573 13.9953 28.4646 14.7239 29.934 16.0448C31.4034 17.3657 32.3304 19.1849 32.5355 21.15L32.6135 21.894L33.3515 22.027C33.7169 22.0972 34.0431 22.3008 34.2669 22.598C34.4907 22.8953 34.5959 23.2652 34.5623 23.6358C34.5286 24.0063 34.3584 24.3511 34.0848 24.6033C33.8111 24.8554 33.4535 24.9968 33.0815 25C32.9969 24.998 32.9126 24.9893 32.8295 24.974V24.973Z" fill="#374957"/>
<path d="M22.082 25C22.9105 25 23.582 24.3284 23.582 23.5C23.582 22.6716 22.9105 22 22.082 22C21.2536 22 20.582 22.6716 20.582 23.5C20.582 24.3284 21.2536 25 22.082 25Z" fill="#374957"/>
<path d="M27.082 25C27.9105 25 28.582 24.3284 28.582 23.5C28.582 22.6716 27.9105 22 27.082 22C26.2536 22 25.582 22.6716 25.582 23.5C25.582 24.3284 26.2536 25 27.082 25Z" fill="#374957"/>
</g>
<defs>
<clipPath id="clip0_420_1235">
<rect width="24" height="24" fill="white" transform="translate(12.582 12)"/>
</clipPath>
</defs>
</svg>
